<?xml version="1.0" standalone="no"?>
<!DOCTYPE svg PUBLIC "-//W3C//DTD SVG 1.1//EN" "http://www.w3.org/Graphics/SVG/1.1/DTD/svg11.dtd" >
<svg xmlns="http://www.w3.org/2000/svg">
<metadata>Generated by IcoMoon</metadata>
<defs>
<font id="icomoonsetone" horiz-adv-x="1024">
<font-face units-per-em="1024" ascent="960" descent="-64" />
<missing-glyph horiz-adv-x="1024" />
<glyph unicode="&#x20;" horiz-adv-x="512" d="" />
<glyph unicode="&#xe900;" glyph-name="camera-icon" horiz-adv-x="1262" d="M0 646.653v-556.698c0.053-85.006 68.949-153.902 153.95-153.955h953.87c85.006 0.053 153.902 68.949 153.955 153.95v556.703c-0.052 80.915-65.659 146.49-146.582 146.49-0.016 0-0.032 0-0.049 0h-204.963l-4.885 21.381c-19.669 83.933-93.884 145.478-182.474 145.478-0.293 0-0.586-0.001-0.879-0.002h-182.526c-0.149 0-0.326 0.001-0.504 0.001-88.67 0-162.971-61.519-182.55-144.203l-0.254-1.274-4.885-21.381h-204.735c-80.841-0.157-146.333-65.649-146.49-146.475v-0.015zM376.431 730.058c0.010 0 0.022 0 0.033 0 14.881 0 27.342 10.358 30.569 24.257l0.041 0.212 10.552 45.85c13.047 55.826 62.395 96.77 121.307 96.77 0.17 0 0.34 0 0.51-0.001h182.545c0.144 0.001 0.314 0.001 0.484 0.001 58.911 0 108.26-40.944 121.14-95.928l0.166-0.842 10.552-45.85c3.362-14.067 15.786-24.378 30.633-24.469h229.951c46.064 0 83.406-37.342 83.406-83.406v0-556.698c-0.079-50.127-40.733-90.732-90.871-90.732 0 0 0 0 0 0h-953.497c-50.186 0-90.871 40.684-90.871 90.871v0 556.56c0 46.064 37.342 83.406 83.406 83.406v0zM255.654 595.411c0-23.312-18.898-42.21-42.21-42.21s-42.21 18.898-42.21 42.21c0 23.312 18.898 42.21 42.21 42.21s42.21-18.898 42.21-42.21zM630.841 97.927c146.335 0 264.963 118.628 264.963 264.963s-118.628 264.963-264.963 264.963c-146.335 0-264.963-118.628-264.963-264.963v0c0.236-146.24 118.723-264.727 264.94-264.963h0.022zM630.841 564.722c111.494 0 201.878-90.384 201.878-201.878s-90.384-201.878-201.878-201.878c-111.494 0-201.878 90.384-201.878 201.878v0c0.157 111.441 90.442 201.741 201.861 201.925h0.017z" />
<glyph unicode="&#xe901;" glyph-name="dollar-icon" d="M874.045 810.045c-92.656 92.656-220.658 149.964-362.045 149.964-282.775 0-512.010-229.234-512.010-512.010 0-141.388 57.309-269.39 149.964-362.045v0c92.656-92.656 220.658-149.964 362.045-149.964 282.775 0 512.010 229.234 512.010 512.010 0 141.388-57.309 269.39-149.964 362.045v0zM512-3.994c-249.629 0-451.994 202.364-451.994 451.994s202.364 451.994 451.994 451.994c249.629 0 451.994-202.364 451.994-451.994v0c-0.303-249.507-202.486-451.691-451.964-451.994h-0.029zM544.154 477.983h-64.266c-36.67 0-66.396 29.727-66.396 66.396s29.727 66.396 66.396 66.396v0h128.532c16.57 0 30.003 13.433 30.003 30.003s-13.433 30.003-30.003 30.003v0h-66.396v66.437c0 16.57-13.433 30.003-30.003 30.003s-30.003-13.433-30.003-30.003v0-66.396h-2.13c-69.81 0-126.403-56.592-126.403-126.403s56.592-126.403 126.403-126.403h64.266c36.67 0 66.396-29.727 66.396-66.396s-29.727-66.396-66.396-66.396v0h-128.532c-16.57 0-30.003-13.433-30.003-30.003s13.433-30.003 30.003-30.003v0h66.396v-66.396c0-16.57 13.433-30.003 30.003-30.003s30.003 13.433 30.003 30.003v0 66.396h2.13c69.81 0 126.403 56.592 126.403 126.403s-56.592 126.403-126.403 126.403v0z" />
<glyph unicode="&#xe902;" glyph-name="photo-icon" horiz-adv-x="1045" d="M775.045 702.894c-58.070 0-105.144-47.075-105.144-105.144s47.075-105.144 105.144-105.144c58.070 0 105.144 47.075 105.144 105.144v0c-0.070 58.041-47.103 105.074-105.138 105.144h-0.007zM775.045 533.402c-35.539 0-64.348 28.81-64.348 64.348s28.81 64.348 64.348 64.348c35.539 0 64.348-28.81 64.348-64.348v0c-0.070-35.502-28.843-64.261-64.344-64.307h-0.005zM775.741 49.787c-0.564 1.352-1.195 2.51-1.929 3.593l0.045-0.071c-1.498 2.244-3.368 4.113-5.539 5.566l-0.072 0.045c-1.012 0.689-2.171 1.32-3.39 1.835l-0.132 0.049c-1.087 0.47-2.363 0.867-3.688 1.127l-0.122 0.020c-1.194 0.252-2.567 0.396-3.973 0.396s-2.779-0.144-4.103-0.419l0.13 0.023c-1.447-0.28-2.723-0.677-3.935-1.194l0.125 0.048c-1.352-0.564-2.51-1.195-3.593-1.929l0.071 0.045c-2.244-1.498-4.113-3.368-5.566-5.539l-0.045-0.072c-0.689-1.012-1.32-2.171-1.835-3.39l-0.049-0.132c-0.47-1.087-0.867-2.363-1.127-3.688l-0.020-0.122c-0.258-1.194-0.406-2.566-0.406-3.973s0.148-2.779 0.429-4.102l-0.023 0.128c0.279-1.446 0.676-2.722 1.194-3.934l-0.047 0.124c0.564-1.352 1.195-2.51 1.929-3.593l-0.045 0.070c0.774-1.168 1.61-2.187 2.539-3.112l0.001-0.001q0.696-0.696 1.475-1.352c0.477-0.389 1.011-0.78 1.565-1.143l0.073-0.045c1.012-0.686 2.17-1.317 3.388-1.834l0.134-0.051c1.087-0.471 2.363-0.867 3.688-1.127l0.121-0.020c1.194-0.259 2.566-0.407 3.973-0.407s2.779 0.148 4.101 0.43l-0.128-0.023c1.446 0.279 2.722 0.676 3.934 1.194l-0.124-0.047c1.353 0.567 2.511 1.198 3.595 1.93l-0.073-0.046c0.628 0.409 1.162 0.8 1.675 1.216l-0.036-0.028c0.532 0.41 1.024 0.86 1.475 1.352 0.93 0.926 1.767 1.944 2.495 3.041l0.045 0.072c0.689 1.012 1.321 2.171 1.835 3.391l0.049 0.132c0.472 1.080 0.882 2.354 1.164 3.675l0.024 0.134c0.247 1.195 0.389 2.567 0.389 3.973s-0.142 2.779-0.411 4.105l0.022-0.132c-0.336 1.459-0.772 2.729-1.322 3.938l0.052-0.128zM454.656 857.149c-0.577 1.356-1.208 2.514-1.934 3.602l0.050-0.079c-0.78 1.166-1.616 2.184-2.54 3.114l0.001-0.001c-0.926 0.93-1.945 1.766-3.041 2.495l-0.072 0.045c-1.012 0.689-2.171 1.32-3.39 1.835l-0.132 0.049c-1.081 0.46-2.356 0.856-3.678 1.125l-0.132 0.022c-1.194 0.253-2.567 0.397-3.973 0.397s-2.779-0.145-4.103-0.42l0.13 0.023c-1.471-0.294-2.761-0.691-3.992-1.199l0.142 0.052c-1.353-0.569-2.511-1.2-3.596-1.931l0.074 0.047c-1.168-0.774-2.187-1.61-3.112-2.539l-0.001-0.001c-0.915-0.932-1.751-1.949-2.491-3.037l-0.049-0.076c-0.663-1.008-1.281-2.166-1.79-3.381l-0.053-0.142c-0.47-1.087-0.867-2.363-1.127-3.688l-0.020-0.121c-0.26-1.201-0.408-2.58-0.408-3.994s0.149-2.793 0.431-4.123l-0.023 0.129c0.28-1.446 0.677-2.722 1.194-3.934l-0.048 0.125c0.562-1.357 1.18-2.515 1.894-3.605l-0.050 0.082c0.789-1.164 1.624-2.181 2.543-3.116l-0.003 0.003c0.926-0.93 1.945-1.766 3.041-2.495l0.072-0.045c1.012-0.686 2.17-1.317 3.388-1.834l0.134-0.051c1.090-0.456 2.379-0.852 3.713-1.124l0.137-0.023c1.194-0.258 2.566-0.406 3.973-0.406s2.779 0.148 4.102 0.429l-0.128-0.023c1.453 0.291 2.729 0.687 3.944 1.197l-0.135-0.050c1.352 0.564 2.51 1.195 3.593 1.929l-0.071-0.045c1.168 0.773 2.187 1.61 3.112 2.539l0.001 0.001c0.924 0.929 1.76 1.947 2.493 3.039l0.047 0.074c0.676 1.009 1.307 2.167 1.83 3.381l0.054 0.141c0.47 1.087 0.867 2.363 1.127 3.688l0.020 0.121c0.26 1.201 0.408 2.58 0.408 3.994s-0.149 2.793-0.431 4.123l0.023-0.129c-0.28 1.446-0.677 2.722-1.194 3.934l0.048-0.125zM930.611 869.683c-12.713 52.132-58.973 90.235-114.146 90.317h-640.337c-97.246-0.21-176.012-79.033-176.128-176.281v-640.134c0.086-63.58 50.687-115.314 113.816-117.223l0.176-0.004c12.697-52.149 58.962-90.271 114.146-90.358h699.115c64.73 0.14 117.158 52.611 117.228 117.344v699.071c-0.061 63.556-50.602 115.288-113.687 117.264l-0.182 0.005zM1003.807 53.35c-0.047-42.238-34.275-76.467-76.509-76.513h-699.151c-0.012 0-0.027 0-0.041 0-42.251 0-76.508 34.228-76.554 76.468v108.261l234.045 396.861c6.816 11.394 19.090 18.905 33.118 18.905 14.492 0 27.112-8.015 33.669-19.855l0.1-0.197 247.235-454.042c3.723-5.544 9.969-9.143 17.056-9.143 11.311 0 20.48 9.169 20.48 20.48 0 2.951-0.624 5.756-1.747 8.29l0.052-0.131-47.432 87.327c1.17-0.058 2.542-0.091 3.92-0.091 20.536 0 39.355 7.355 53.966 19.573l-0.133-0.108 91.75 76.104c6.614 5.483 15.189 8.81 24.54 8.81 10.033 0 19.171-3.829 26.034-10.106l-0.029 0.026 4.792-4.383 40.96-37.396 70.001-64.184zM1003.807 253.686l-69.919 64.143-40.96 31.089c-9.089 3.914-19.669 6.19-30.781 6.19-19.282 0-36.963-6.853-50.74-18.257l0.133 0.107-91.75-76.104c-7.508-6.259-17.257-10.059-27.894-10.059-16.473 0-30.817 9.113-38.266 22.573l-0.114 0.224-165.11 303.186c-13.712 24.825-39.73 41.359-69.609 41.359-28.919 0-54.22-15.488-68.062-38.622l-0.2-0.361-198.984-337.265v510.525c0.023 42.285 34.307 76.554 76.595 76.554h126.075c11.311 0 20.48 9.169 20.48 20.48s-9.169 20.48-20.48 20.48v0h-126.075c-64.783-0.070-117.28-52.568-117.35-117.344v-685.227c-39.269 3.582-69.799 36.333-69.837 76.223v640.127c0.093 74.68 60.514 135.217 135.141 135.496h640.314c32.513-0.040 60.28-20.32 71.379-48.916l0.179-0.523h-370.524c-11.311 0-20.48-9.169-20.48-20.48s9.169-20.48 20.48-20.48v0l416.44-0.287c39.339-3.501 69.955-36.281 70.001-76.222v-0.005z" />
<glyph unicode="&#xe903;" glyph-name="archive-icon" d="M1020.6 622.285h0.328l-186.163 326.001c-4.087 7.049-11.596 11.715-20.195 11.715-0.014 0-0.027 0-0.041 0h-605.059c-0.012 0-0.025 0-0.039 0-8.599 0-16.109-4.665-20.136-11.603l-0.060-0.111-186.163-325.837h0.328c-2.068-3.284-3.324-7.263-3.399-11.53v-581.653c0-0.024 0-0.053 0-0.082 0-51.435 41.673-93.137 93.098-93.184h837.8c51.4 0.047 93.055 41.702 93.102 93.098v581.801c-0.108 4.231-1.359 8.148-3.455 11.481l0.055-0.094zM222.945 913.469h578.109l159.744-279.265h-897.434zM977.428 29.102c-0.047-25.679-20.851-46.484-46.526-46.531h-837.8c-25.679 0.047-46.484 20.851-46.531 46.526v558.535h930.898zM325.837 308.367h372.367c50.572 1.094 91.149 42.349 91.149 93.082s-40.577 91.987-91.048 93.080l-0.102 0.002h-372.367c-50.572-1.094-91.149-42.349-91.149-93.082s40.577-91.987 91.048-93.080l0.102-0.002zM325.837 448h372.367c25.709 0 46.551-20.842 46.551-46.551s-20.842-46.551-46.551-46.551h-372.367c-25.709 0-46.551 20.842-46.551 46.551s20.842 46.551 46.551 46.551v0z" />
<glyph unicode="&#xe904;" glyph-name="arrow-left-icon" d="M251.392 498.688l440.32 440.32c12.977 12.983 30.907 21.014 50.714 21.014 39.6 0 71.702-32.102 71.702-71.702 0-19.794-8.020-37.714-20.988-50.688l-389.632-389.632 389.581-389.581c12.979-12.979 21.006-30.909 21.006-50.714 0-39.61-32.11-71.72-71.72-71.72-19.805 0-37.735 8.028-50.714 21.006l-440.32 440.32c-12.973 12.972-20.997 30.893-20.997 50.688s8.024 37.716 20.997 50.688v0z" />
<glyph unicode="&#xe905;" glyph-name="arrow-right-icon" d="M793.139 498.688l-440.32 440.32c-12.979 12.979-30.909 21.006-50.714 21.006-39.61 0-71.72-32.11-71.72-71.72 0-19.805 8.028-37.735 21.006-50.714l389.632-389.581-389.632-389.581c-12.979-12.979-21.006-30.909-21.006-50.714 0-39.61 32.11-71.72 71.72-71.72 19.805 0 37.735 8.028 50.714 21.006l440.32 440.32c12.973 12.972 20.997 30.893 20.997 50.688s-8.024 37.716-20.997 50.688v0z" />
<glyph unicode="&#xe906;" glyph-name="attachment-icon" d="M468.173 503.296c6.187 6.472 9.995 15.264 9.995 24.945 0 19.952-16.174 36.127-36.127 36.127-9.681 0-18.473-3.808-24.959-10.008l0.014 0.013-191.16-191.16c-32.243-31.093-52.266-74.669-52.266-122.922 0-94.264 76.416-170.68 170.68-170.68 48.253 0 91.829 20.023 122.873 52.214l0.050 0.052 431.636 431.596c41.453 42.817 67.002 101.249 67.002 165.648 0 131.59-106.675 238.264-238.264 238.264-64.613 0-123.219-25.719-166.139-67.478l0.054 0.052-430.735-430.735c-57.374-55.756-92.973-133.654-92.973-219.867 0-169.255 137.208-306.463 306.463-306.463 86.213 0 164.112 35.6 219.797 92.901l0.070 0.072 191.16 191.16c6.895 6.591 11.181 15.861 11.181 26.132 0 19.952-16.174 36.127-36.127 36.127-10.271 0-19.541-4.286-26.119-11.168l-0.013-0.014-191.16-191.16c-42.554-43.458-101.827-70.4-167.393-70.4-129.35 0-234.209 104.859-234.209 234.209 0 65.566 26.942 124.839 70.359 167.353l0.041 0.040 430.735 430.735c29.695 29.93 70.844 48.458 116.321 48.458 0.29 0 0.58-0.001 0.87-0.002h-0.045c45.732-0.021 87.138-18.531 117.149-48.46l-0.004 0.004c29.93-29.695 48.458-70.844 48.458-116.321 0-0.29-0.001-0.58-0.002-0.87v0.045c-0.021-45.732-18.531-87.138-48.46-117.149l-431.592-431.632c-17.926-17.589-42.511-28.445-69.632-28.445s-51.706 10.856-69.648 28.46l0.016-0.015c-17.982 17.746-29.12 42.388-29.12 69.632s11.138 51.886 29.109 69.622l0.011 0.010 192.102 191.078z" />
<glyph unicode="&#xe907;" glyph-name="bell-icon" d="M999.055 358.093c-0.156-49.327-20.105-93.965-52.317-126.413l0.011 0.011c-2.675-3.023-4.308-7.022-4.308-11.402 0-9.524 7.72-17.244 17.244-17.244 4.492 0 8.583 1.718 11.652 4.532l-0.013-0.012c38.409 38.603 62.217 91.765 62.423 150.488v0.040c0.001 0.25 0.002 0.545 0.002 0.84 0 58.659-23.795 111.76-62.259 150.178l-0.002 0.002c-3.137 3.162-7.484 5.12-12.288 5.12-9.558 0-17.306-7.748-17.306-17.306 0-4.753 1.916-9.059 5.019-12.187l-0.001 0.001c32.217-32.208 52.144-76.708 52.144-125.862 0-0.276-0.001-0.553-0.002-0.829v0.042zM867.656 286.822c3.12-3.116 7.428-5.043 12.186-5.043s9.066 1.927 12.186 5.043v0c18.335 18.257 29.681 43.521 29.681 71.434s-11.346 53.177-29.677 71.431l-0.004 0.003c-3.115 3.075-7.398 4.974-12.124 4.974-9.534 0-17.262-7.729-17.262-17.262 0-4.808 1.965-9.156 5.136-12.286l0.002-0.002c12.042-12.007 19.492-28.614 19.492-46.961s-7.45-34.953-19.491-46.959l-0.002-0.002c-3.153-3.126-5.105-7.459-5.105-12.247 0-4.727 1.902-9.011 4.983-12.126l-0.002 0.002zM74.465 202.445c9.5 0.031 17.189 7.74 17.189 17.244 0 4.687-1.87 8.938-4.905 12.046l0.003-0.003c-32.143 32.47-52.064 77.090-52.265 126.364v0.039c-0.001 0.206-0.001 0.45-0.001 0.694 0 49.126 19.946 93.593 52.181 125.746l0.004 0.004c3.101 3.126 5.018 7.432 5.018 12.186 0 9.558-7.748 17.306-17.306 17.306-4.804 0-9.151-1.958-12.287-5.119l-0.001-0.001c-38.463-38.351-62.261-91.393-62.261-149.993 0-0.303 0.001-0.607 0.002-0.91v0.047c0.252-58.733 23.997-111.871 62.316-150.544l-0.016 0.016c3.127-3.162 7.466-5.12 12.262-5.12 0.023 0 0.047 0 0.070 0h-0.004zM153.723 281.784c0.044 0 0.097-0.001 0.149-0.001 9.524 0 17.244 7.72 17.244 17.244 0 4.789-1.952 9.122-5.104 12.246l-0.001 0.001c-12.015 11.847-19.457 28.304-19.457 46.499 0 0.155 0.001 0.31 0.002 0.465v-0.024c0 0.052 0 0.114 0 0.176 0 18.312 7.454 34.882 19.494 46.843l0.004 0.004c3.166 3.135 5.126 7.483 5.126 12.288 0 9.55-7.742 17.291-17.291 17.291-4.744 0-9.042-1.911-12.167-5.005l0.001 0.001c-18.335-18.257-29.681-43.521-29.681-71.434s11.346-53.177 29.677-71.431l0.004-0.003c3.062-3.117 7.295-5.075 11.985-5.161h0.016zM516.751-23.040c46.875 0.18 86.694 30.193 101.471 72.030l0.233 0.756h219.75c0.086 0 0.187-0.001 0.288-0.001 26.546 0 49.144 16.903 57.619 40.534l0.134 0.427c2.168 6.043 3.422 13.015 3.422 20.28 0 19.143-8.702 36.253-22.366 47.59l-0.102 0.082c-54.040 44.979-88.187 112.262-88.187 187.521 0 0.127 0 0.255 0 0.382v-0.020 187.269c-0.819 58.41-19.335 112.338-50.41 156.847l0.603-0.912c-30.713 44.431-73.586 78.498-123.811 97.695l-1.814 0.609c2.768 8.804 4.362 18.928 4.362 29.424 0 56.011-45.406 101.417-101.417 101.417s-101.417-45.406-101.417-101.417c0-10.496 1.595-20.62 4.555-30.143l-0.192 0.718c-102.974-40.701-174.622-139.104-175.267-254.322v-187.104c0-0.133 0-0.29 0-0.447 0-75.204-34.114-142.44-87.712-187.078l-0.393-0.318c-13.834-11.354-22.59-28.453-22.59-47.598 0-33.932 27.508-61.44 61.44-61.44 0.195 0 0.389 0.001 0.583 0.003h219.475c15.035-42.591 54.861-72.598 101.722-72.786h0.023zM516.751 884.552c36.892-0.116 66.759-30.027 66.806-66.924v-0.004c-0.11-6.644-1.18-12.998-3.078-18.983l0.128 0.469c-19.435 5.399-41.776 8.574-64.834 8.724h-0.088c-22.545-0.269-44.231-3.467-64.846-9.228l1.767 0.422c-1.841 5.797-2.902 12.463-2.902 19.378 0 36.534 29.617 66.15 66.15 66.15 0.257 0 0.514-0.001 0.77-0.004h-0.039zM231.588 84.357h-36.086c-0.054 0-0.118-0.001-0.182-0.001-11.67 0-21.613 7.394-25.399 17.753l-0.060 0.188c-1.108 2.798-1.75 6.040-1.75 9.432 0 8.317 3.861 15.733 9.889 20.551l0.052 0.041c61.671 51.35 100.639 128.15 100.639 214.051 0 0.146 0 0.292 0 0.438v-0.023 187.023c0.587 106.375 70.399 196.289 166.649 227.024l1.697 0.468 1.352 0.328c20.036 7.129 43.149 11.368 67.217 11.632l0.121 0.001c0.083 0 0.182 0 0.28 0 24.638 0 48.283-4.246 70.246-12.046l-1.467 0.454 1.188-0.451c97.922-31.227 167.71-121.131 168.304-227.421v-187.094c0-0.108 0-0.236 0-0.365 0-85.938 38.983-162.771 100.231-213.779l0.449-0.364c6.149-4.996 10.045-12.557 10.045-21.029 0-3.209-0.559-6.287-1.585-9.142l0.059 0.189c-3.697-10.529-13.552-17.943-25.14-17.943-0.119 0-0.237 0.001-0.355 0.002h-606.395zM580.69 49.869c-12.431-23.031-36.388-38.415-63.939-38.415s-51.508 15.385-63.749 38.032l-0.19 0.384z" />
<glyph unicode="&#xe908;" glyph-name="calendar-icon" d="M902.502 361.574v511.642c0 9.586-7.771 17.357-17.357 17.357v0h-86.784v52.070c0 9.586-7.771 17.357-17.357 17.357h-121.498c-9.586 0-17.357-7.771-17.357-17.357v0-52.070h-381.798v52.070c0 9.586-7.771 17.357-17.357 17.357v0h-121.498c-9.586 0-17.357-7.771-17.357-17.357v-52.070h-86.784c-9.586 0-17.357-7.771-17.357-17.357v0-885.146c0-9.586 7.771-17.357 17.357-17.357h661.35c33.285-20.489 73.612-32.627 116.773-32.627 124.419 0 225.28 100.861 225.28 225.28 0 85.188-47.283 159.332-117.037 197.62l-1.17 0.588zM676.864 925.286h86.784v-104.141h-86.784v104.141zM138.854 925.286h86.784v-104.141h-86.784v104.141zM34.714 855.859h69.427v-52.070c0-9.586 7.771-17.357 17.357-17.357h121.498c9.586 0 17.357 7.771 17.357 17.357v0 52.070h381.85v-52.070c0-9.586 7.771-17.357 17.357-17.357v0h121.498c9.586 0 17.357 7.771 17.357 17.357v0 52.070h69.427v-138.854h-833.126zM34.714 5.427v676.864h833.075v-305.971c-3.379 1.075-6.861 1.997-10.24 2.918s-6.4 1.741-9.677 2.509-5.888 1.229-8.858 1.792c-4.25 0.768-8.499 1.434-12.749 1.946-2.355 0.307-4.762 0.614-7.117 0.87-6.861 0.614-13.722 1.024-20.48 1.024-5.888 0-11.622-0.41-17.357-0.87v208.998h-659.814v-503.347h462.182c0.512-1.536 1.126-3.021 1.638-4.506 1.434-4.198 2.918-8.448 4.608-12.544 0.973-2.304 2.099-4.506 3.123-6.758 1.997-4.403 4.045-8.806 6.298-13.056 1.024-1.843 2.15-3.635 3.174-5.478 2.56-4.506 5.12-8.96 8.038-13.261 1.075-1.587 2.202-3.072 3.328-4.659 3.072-4.352 6.195-8.653 9.574-12.749 1.229-1.536 2.611-2.97 3.891-4.454 2.714-3.123 5.12-6.298 8.141-9.318h-600.781zM699.648 364.186c-1.894-0.922-3.789-1.741-5.632-2.714-3.277-1.69-6.4-3.584-9.574-5.427s-5.53-3.277-8.192-5.12-5.376-3.584-8.038-5.427-5.939-4.352-8.806-6.605-4.659-3.635-6.912-5.53c-3.021-2.56-5.939-5.12-8.858-8.038-1.997-1.894-4.045-3.738-5.99-5.683-3.123-3.174-6.093-6.554-9.062-9.984-1.229-1.434-2.611-2.765-3.84-4.25v99.226h121.498v-23.654h-0.87c-17.449-4.385-32.668-10.135-47.003-17.381l1.281 0.587zM582.656 227.84c-0.614-1.997-1.024-4.045-1.587-6.042-1.382-5.12-2.816-10.24-3.84-15.36-0.819-3.994-1.28-8.090-1.843-12.186-0.461-3.277-1.126-6.502-1.485-9.83-0.768-7.475-1.126-15.053-1.126-22.63 0-6.246 0.358-12.595 0.922-18.944 0-1.178 0-2.355 0-3.482 0.256-2.816 0.819-5.53 1.229-8.294v0c0-1.331 0.256-2.611 0.461-3.942h-106.752v121.19h121.498c0-0.41-0.256-0.87-0.461-1.28-2.611-6.349-5.018-12.851-7.014-19.2zM156.211 248.32h121.498v-121.498h-121.498zM156.211 404.531h121.498v-121.395h-121.498zM746.291 439.245h-121.651v121.395h121.498zM590.080 439.245h-121.446v121.395h121.498zM590.080 283.034h-121.446v121.6h121.498zM312.32 404.634h121.6v-121.498h-121.6zM433.818 439.347h-121.498v121.293h121.6zM277.606 439.347h-121.395v121.293h121.498zM312.32 248.32h121.6v-121.498h-121.6zM798.31-29.389c-0.045 0-0.098 0-0.151 0-39.474 0-76.132 12.053-106.495 32.681l0.662-0.425c-6.378 4.318-11.869 8.507-17.116 12.974l0.271-0.225c-1.894 1.587-3.635 3.277-5.427 5.12-3.43 3.123-6.758 6.298-9.882 9.626-2.048 2.15-3.994 4.301-5.939 6.502-2.867 3.277-5.53 6.656-8.141 10.24-1.69 2.202-3.379 4.352-5.12 6.605-3.384 4.807-6.911 10.445-10.146 16.266l-0.504 0.988c-0.768 1.382-1.331 2.867-2.048 4.25-2.509 5.12-5.12 10.24-7.014 15.36-0.922 2.253-1.69 4.557-2.509 6.861-1.638 4.557-3.123 9.165-4.403 13.824-0.307 1.075-0.563 2.15-0.819 3.226-1.666 6.162-3.207 13.883-4.287 21.749l-0.116 1.035c0 0.563 0 1.075 0 1.638-0.959 6.92-1.517 14.931-1.536 23.069v0.022c0.002 6.891 0.374 13.694 1.097 20.39l-0.073-0.832c0 0.563 0 1.075 0 1.587 0.666 5.939 1.536 11.827 2.765 17.613 0 0.563 0.307 1.075 0.41 1.638 1.229 5.786 2.714 11.469 4.506 17.152 0 0.666 0.512 1.28 0.717 1.946 1.792 5.427 3.789 10.803 6.042 16.077s4.454 9.83 7.014 14.592l1.741 2.97c0.717 1.229 1.485 2.406 2.253 3.686q4.506 7.629 9.677 14.746l2.611 3.482q4.71 6.195 9.882 11.93c1.178 1.331 2.406 2.714 3.635 3.994 3.379 3.635 6.963 7.014 10.65 10.24 1.28 1.178 2.56 2.406 3.891 3.533 4.301 3.686 8.755 7.117 13.363 10.24l2.15 1.638c21.766 15.216 47.675 26.136 75.677 30.92l1.123 0.159h0.358c9.414 1.726 20.282 2.748 31.376 2.816h0.061c0.058 0 0.128 0 0.197 0 7.019 0 13.947-0.391 20.763-1.151l-0.838 0.076c1.024 0 2.048-0.358 3.072-0.461 5.683-0.717 11.366-1.587 16.998-2.765l2.048-0.512c5.99-1.382 11.878-2.97 17.715-5.12l1.178-0.41q8.96-3.072 17.715-7.066c66.634-30.72 112.052-96.942 112.052-173.773 0-105.36-85.411-190.771-190.771-190.771-0.063 0-0.127 0-0.19 0h0.010zM902.502 177.613h-86.784v86.784c0 9.586-7.771 17.357-17.357 17.357s-17.357-7.771-17.357-17.357v-86.784h-86.784c-9.586 0-17.357-7.771-17.357-17.357s7.771-17.357 17.357-17.357h86.784v-86.784c0-9.586 7.771-17.357 17.357-17.357s17.357 7.771 17.357 17.357v86.784h86.784c9.586 0 17.357 7.771 17.357 17.357s-7.771 17.357-17.357 17.357v0z" />
<glyph unicode="&#xe909;" glyph-name="call-icon" d="M795.812 325.652c-17.022 19.988-41.968 32.788-69.92 33.503l-0.122 0.002c-28.26-0.835-53.405-13.501-70.768-33.193l-0.093-0.107-65.536-68.076c-5.407 3.031-10.772 5.816-15.974 8.643-7.455 3.891-14.5 7.578-20.48 11.469-66.156 45.313-122.503 98.964-169.267 160.313l-1.291 1.765c-21.237 26.681-39.933 56.952-54.821 89.335l-1.13 2.743c16.998 16.384 32.768 33.055 48.087 49.152 5.816 6.062 11.592 12.288 17.408 18.35 20.096 18.681 32.628 45.263 32.628 74.772s-12.532 56.091-32.565 74.714l-0.063 0.058-56.566 58.982c-6.431 6.717-13.066 13.599-19.292 20.48-12.288 13.394-25.477 27.238-38.953 40.182-17.236 19.066-41.86 31.174-69.319 31.783l-0.108 0.002c-27.864-0.721-52.776-12.784-70.395-31.724l-0.056-0.061-0.41-0.451-70.492-73.769c-25.486-26.239-42.123-61.195-45.024-99.98l-0.032-0.536c-0.244-5.179-0.383-11.251-0.383-17.355 0-51.459 9.885-100.61 27.859-145.656l-0.934 2.653c39.451-105.81 93.105-197.147 159.823-277.215l-1.226 1.513c87.555-109.644 195.769-198.827 319.24-262.597l5.491-2.578c52.757-29.029 114.543-48.994 180.2-56.010l2.153-0.187c4.342-0.205 8.929-0.451 13.066-0.451 0.942-0.021 2.052-0.033 3.165-0.033 46.458 0 88.086 20.675 116.187 53.326l0.169 0.201c0.205 0.451 0.614 0.655 0.819 1.065 11.769 14.144 23.616 26.9 36.115 38.987l0.135 0.13c8.929 8.847 18.022 18.145 26.952 27.894 18.885 19.333 30.716 45.627 31.292 74.682l0.002 0.111c-0.467 29.090-12.589 55.26-31.887 74.118l-0.020 0.020zM869.99 98.202c-0.205 0-0.205-0.205 0 0-8.192-9.093-16.384-17.285-25.272-26.378-13.876-13.507-26.941-27.597-39.26-42.331l-0.717-0.882c-18.088-21.12-44.783-34.419-74.583-34.419-1.14 0-2.275 0.019-3.405 0.058l0.164-0.004c-3.113 0-6.431 0-9.544 0.205-60.203 6.633-114.983 24.557-163.995 51.641l2.244-1.137c-121.453 62.571-223.379 146.592-304.46 248.006l-1.43 1.85c-61.527 73.834-111.972 159.653-147.119 252.968l-2.017 6.104c-14.901 35.67-23.557 77.114-23.557 120.58 0 5.131 0.121 10.233 0.359 15.305l-0.027-0.717c1.566 25.235 12.164 47.73 28.569 64.532l-0.019-0.020 70.656 73.728c7.854 8.77 18.933 14.512 31.356 15.352l0.142 0.008c12.143-0.817 22.822-6.483 30.222-15.058l0.047-0.056 0.614-0.655c12.657-12.288 24.576-25.068 37.315-38.666 6.431-6.922 13.066-13.844 19.702-20.972l56.566-58.982c10.060-7.813 16.472-19.91 16.472-33.505s-6.412-25.693-16.376-33.434l-0.096-0.072c-6.021-6.267-11.796-12.534-17.818-18.596-17.408-18.596-33.997-35.881-52.019-52.716-0.41-0.451-0.819-0.655-1.024-1.065-8.552-8.277-13.86-19.86-13.86-32.683 0-5.925 1.133-11.585 3.195-16.776l-0.108 0.307 0.614-1.925c18.251-43.519 40.716-81.067 67.672-114.875l-0.744 0.966 0.205-0.205c51.7-68.158 112.448-126.040 181.185-173.108l2.644-1.71c6.963-4.56 15.301-9.379 23.895-13.767l1.582-0.733c7.455-3.891 14.5-7.578 20.48-11.469 0.819-0.451 1.638-1.065 2.499-1.516 5.853-3.417 12.885-5.435 20.388-5.435 12.707 0 24.063 5.787 31.576 14.869l0.055 0.069 70.861 73.728c7.663 9.117 18.671 15.207 31.11 16.37l0.184 0.014c12.139-0.864 22.739-6.802 29.794-15.684l0.066-0.086 0.41-0.451 114.196-119.071c9.832-8.106 16.051-20.287 16.051-33.921 0-13.447-6.050-25.48-15.577-33.527l-0.065-0.054zM543.908 716.411c115.839-20.641 205.868-110.67 226.259-224.825l0.249-1.684c2.38-13.823 14.278-24.207 28.601-24.207 0.025 0 0.050 0 0.075 0h-0.004c1.792 0.048 3.503 0.21 5.178 0.48l-0.221-0.029c13.939 2.38 24.417 14.371 24.417 28.809 0 1.731-0.151 3.427-0.44 5.076l0.025-0.175c-24.923 140.175-133.882 249.12-272.030 273.722l-2.033 0.3c-1.456 0.256-3.132 0.402-4.842 0.402-14.37 0-26.327-10.336-28.841-23.979l-0.028-0.18c-0.326-1.623-0.513-3.488-0.513-5.397 0-14.237 10.377-26.051 23.98-28.29l0.166-0.023zM1003.069 508.293c-41.041 230.857-220.504 410.278-448.033 450.763l-3.346 0.493c-1.979 0.48-4.251 0.755-6.588 0.755-16.084 0-29.123-13.039-29.123-29.123 0-15.057 11.427-27.446 26.082-28.966l0.125-0.011c206.33-36.585 366.707-196.962 402.852-400.305l0.44-2.988c2.38-13.823 14.278-24.207 28.601-24.207 0.025 0 0.050 0 0.075 0h-0.004c1.792 0.048 3.503 0.21 5.178 0.48l-0.221-0.029c13.874 2.167 24.365 14.032 24.365 28.347 0 1.692-0.147 3.35-0.428 4.962l0.025-0.172z" />
<glyph unicode="&#xe90a;" glyph-name="chat-icon" d="M171.090 525.619h222.372c0.25-0.013 0.543-0.020 0.837-0.020 9.456 0 17.121 7.665 17.121 17.121s-7.665 17.121-17.121 17.121c-0.294 0-0.587-0.007-0.878-0.022l0.041 0.002h-222.372c-0.25 0.013-0.543 0.020-0.837 0.020-9.456 0-17.121-7.665-17.121-17.121s7.665-17.121 17.121-17.121c0.294 0 0.587 0.007 0.878 0.022l-0.041-0.002zM615.834 457.175h-444.744c-0.25 0.013-0.543 0.020-0.837 0.020-9.456 0-17.121-7.665-17.121-17.121s7.665-17.121 17.121-17.121c0.294 0 0.587 0.007 0.878 0.022l-0.041-0.002h444.744c0.25-0.013 0.543-0.020 0.837-0.020 9.456 0 17.121 7.665 17.121 17.121s-7.665 17.121-17.121 17.121c-0.294 0-0.587-0.007-0.878-0.022l0.041 0.002zM615.834 354.529h-444.744c-0.25 0.013-0.543 0.020-0.837 0.020-9.456 0-17.121-7.665-17.121-17.121s7.665-17.121 17.121-17.121c0.294 0 0.587 0.007 0.878 0.022l-0.041-0.002h444.744c0.25-0.013 0.543-0.020 0.837-0.020 9.456 0 17.121 7.665 17.121 17.121s-7.665 17.121-17.121 17.121c-0.294 0-0.587-0.007-0.878-0.022l0.041 0.002zM925 917.852l-584.049 1.188c-56.015-0.047-101.411-45.443-101.458-101.453v-87.658l-138.035-0.287c-56.001-0.047-101.388-45.42-101.458-101.41v-361.643c0.070-55.997 45.457-101.37 101.453-101.417h103.838v-171.049c0.012-9.447 7.673-17.101 17.121-17.101 5.008 0 9.514 2.15 12.645 5.578l0.012 0.013 165.97 182.559 284.426 1.147c56.001 0.047 101.388 45.42 101.458 101.41v1.932l90.112-98.959c3.143-3.441 7.649-5.591 12.657-5.591 9.449 0 17.11 7.654 17.121 17.1v171.091h18.309c55.945 0.14 101.248 45.501 101.294 101.454v361.64c-0.047 56.001-45.42 101.388-101.41 101.458h-0.007zM752.681 267.776c-0.047-37.132-30.159-67.215-67.297-67.215v0l-292.168-1.188c-4.981-0.030-9.453-2.183-12.562-5.598l-0.012-0.014-141.312-155.648v144.138c0 9.456-7.665 17.121-17.121 17.121v0h-120.75c-37.121 0.023-67.21 30.098-67.256 67.211v361.641c0.047 37.118 30.135 67.192 67.254 67.215h0.002l583.926 1.229c37.103-0.047 67.169-30.112 67.215-67.211v-361.681zM992.174 454.758c-0.047-37.103-30.112-67.169-67.211-67.215h-35.435c-9.456 0-17.121-7.665-17.121-17.121v0-143.933l-85.524 94.208v308.716c-0.070 56.006-45.452 101.388-101.451 101.458h-0.007l-411.73-0.86v87.613c0.047 37.103 30.112 67.169 67.211 67.215h0.004l584.049-1.188c37.121-0.023 67.21-30.098 67.256-67.211v-361.682z" />
<glyph unicode="&#xe90b;" glyph-name="clock-icon" d="M512-64c282.77 0 512 229.23 512 512s-229.23 512-512 512c-282.77 0-512-229.23-512-512v0c0.175-282.699 229.3-511.825 511.983-512h0.017zM512 888.32c243.182 0 440.32-197.138 440.32-440.32s-197.138-440.32-440.32-440.32c-243.182 0-440.32 197.138-440.32 440.32v0c0 243.182 197.138 440.32 440.32 440.32v0zM488.141 387.84h170.65c20.020 0 36.25 16.229 36.25 36.25s-16.229 36.25-36.25 36.25h-134.4v210.483c0 20.020-16.229 36.25-36.25 36.25s-36.25-16.229-36.25-36.25v0-246.733c-0.002-0.122-0.002-0.267-0.002-0.412 0-19.794 16.046-35.84 35.84-35.84 0.145 0 0.289 0.001 0.434 0.003h-0.022z" />
<glyph unicode="&#xe90c;" glyph-name="close-icon" d="M292.388 191.916c-10.072-9.943-26.288-9.903-36.305 0.113-0.010 0.010-0.020 0.020-0.030 0.030l0.002-0.002c-0.034 0.034-0.074 0.074-0.115 0.114-9.931 9.931-9.931 26.032 0 35.963 0.040 0.040 0.080 0.080 0.121 0.12l219.473 219.473-219.622 219.622c-10.016 10.143-10.046 26.433-0.096 36.607l0.011 0.011c10.072 9.944 26.288 9.904 36.305-0.113 0.050-0.050 0.1-0.1 0.15-0.151l219.471-219.471 219.479 219.479c0.083 0.086 0.182 0.187 0.282 0.287 10.057 10.057 26.362 10.057 36.419 0 0.011-0.011 0.022-0.022 0.032-0.032l-0.002 0.002c10.068-10.164 10.068-26.539 0.005-36.699l-219.541-219.541 219.479-219.479c0.008-0.008 0.018-0.018 0.028-0.028 10.047-10.047 10.057-26.33 0.030-36.389l-0.002-0.002c-10.164-10.068-26.539-10.068-36.699-0.005l-219.484 219.484z" />
<glyph unicode="&#xe90d;" glyph-name="down-arrow-icon" d="M523.947 149.419c-0.026 0-0.056 0-0.087 0-20.236 0-38.553 8.22-51.794 21.502l-450.562 450.562c-12.691 13.173-20.509 31.117-20.509 50.888 0 40.53 32.856 73.387 73.387 73.387 19.77 0 37.715-7.818 50.91-20.531l-0.023 0.022 398.677-398.677 398.677 398.677c13.173 12.691 31.117 20.509 50.888 20.509 40.53 0 73.387-32.856 73.387-73.387 0-19.77-7.818-37.715-20.531-50.91l0.022 0.023-450.56-450.56c-13.242-13.285-31.559-21.504-51.796-21.504-0.031 0-0.061 0-0.092 0h0.005z" />
<glyph unicode="&#xe90e;" glyph-name="download-icon" d="M993.659 459.833c-0.034 0-0.074 0-0.114 0-16.128 0-29.203-13.075-29.203-29.203 0-0.040 0-0.080 0-0.12v0.006-266.619c-0.086-72.509-58.832-131.268-131.327-131.375h-643.044c-72.506 0.108-131.251 58.867-131.337 131.367v270.951c0 16.191-13.126 29.317-29.317 29.317s-29.317-13.126-29.317-29.317v0-270.943c0.129-104.866 85.105-189.842 189.959-189.971h643.122c104.866 0.129 189.842 85.105 189.971 189.959v266.631c0 0 0 0 0 0 0 16.191-13.126 29.317-29.317 29.317-0.027 0-0.053 0-0.080 0h0.004zM490.913 206.677c5.28-5.302 12.563-8.607 20.617-8.685h0.015c0.032 0 0.069 0 0.106 0 8.049 0 15.322 3.326 20.519 8.678l186.299 186.337c5.536 5.34 8.974 12.824 8.974 21.11 0 16.191-13.126 29.317-29.317 29.317-8.286 0-15.77-3.438-21.102-8.965l-0.008-0.009-136.116-136.533v594.83c0 16.191-13.126 29.317-29.317 29.317s-29.317-13.126-29.317-29.317v-594.565l-136.533 136.533c-5.264 5.078-12.438 8.207-20.343 8.207-16.191 0-29.317-13.126-29.317-29.317 0-7.905 3.129-15.079 8.215-20.352l-0.008 0.009z" />
<glyph unicode="&#xe90f;" glyph-name="envelope-icon" d="M891.136 832h-771.115c-0.656 0.013-1.429 0.021-2.204 0.021-64.176 0-116.371-51.299-117.815-115.129l-0.002-0.134v-537.6c1.47-63.945 53.655-115.221 117.816-115.221 0.775 0 1.549 0.007 2.321 0.022l-0.116-0.002h771.115c0.656-0.013 1.43-0.021 2.205-0.021 64.161 0 116.347 51.275 117.814 115.084l0.002 0.136v537.6c-1.446 63.964-53.641 115.263-117.817 115.263-0.775 0-1.548-0.007-2.32-0.022l0.116 0.002zM891.136 165.76h-771.115c-9.728 0-18.261 6.315-18.261 13.483v466.432l348.757-294.4c6.863-5.811 15.816-9.344 25.593-9.344 0.002 0 0.005 0 0.007 0h58.88c9.78 0.002 18.734 3.535 25.658 9.392l-0.058-0.048 348.757 294.4v-466.432c0.043-7.168-8.491-13.483-18.219-13.483zM505.557 443.093l-339.157 287.147h678.4z" />
<glyph unicode="&#xe910;" glyph-name="error-icon" d="M512 960c-282.77 0-512-229.23-512-512s229.23-512 512-512c282.77 0 512 229.23 512 512v0c0 0.091 0 0.199 0 0.307 0 282.6-229.093 511.693-511.693 511.693-0.108 0-0.216 0-0.324 0h0.017zM512 15.974c-238.601 0-432.026 193.424-432.026 432.026s193.424 432.026 432.026 432.026c238.601 0 432.026-193.424 432.026-432.026v0c0-0.076 0-0.166 0-0.256 0-238.46-193.31-431.77-431.77-431.77-0.090 0-0.18 0-0.27 0h0.014zM512 702.259c-22.084 0-39.987-17.903-39.987-39.987v0-257.587c0-22.098 17.914-40.013 40.013-40.013s40.013 17.914 40.013 40.013v0 257.587c0 22.084-17.903 39.987-39.987 39.987-0.018 0-0.036 0-0.054 0h0.003zM566.016 261.683c0-29.832-24.184-54.016-54.016-54.016s-54.016 24.184-54.016 54.016c0 29.832 24.184 54.016 54.016 54.016s54.016-24.184 54.016-54.016z" />
<glyph unicode="&#xe911;" glyph-name="google-plus-icon" d="M801.391 492.522h-373.983v-124.661h228.174c-35.129-109.318-135.909-187.043-254.842-187.043-147.532 0-267.13 119.598-267.13 267.13s119.598 267.13 267.13 267.13c74.262 0 141.447-30.303 189.863-79.219l0.022-0.022 90.557 98.349c-72.213 70.808-171.23 114.51-280.455 114.51-221.298 0-400.696-179.398-400.696-400.696 0-221.287 179.379-400.677 400.662-400.696h0.001c0.264-0.001 0.578-0.001 0.891-0.001 194.657 0 357.599 135.786 399.274 317.805l0.53 2.752v124.661zM1044.213 492.744h-76.533v76.488h-65.581v-76.488h-76.444v-65.581h76.488v-76.488h65.536v76.488h76.488z" />
<glyph unicode="&#xe912;" glyph-name="history-icon" d="M543.925 899.765c-0.001 0-0.001 0-0.002 0-249.058 0-451.044-201.542-451.763-450.431v-0.069c-0.065-3.083-0.103-6.718-0.103-10.36 0-46.122 5.971-90.85 17.181-133.452l-0.815 3.645-60.838 35.479c-4.82 3.126-10.714 4.985-17.043 4.985-17.465 0-31.624-14.158-31.624-31.624 0-12.041 6.73-22.511 16.634-27.852l0.168-0.083 142.637-83.125 0.904-0.361c1.313-0.707 2.866-1.379 4.478-1.923l0.22-0.064c0.847-0.344 1.949-0.715 3.076-1.028l0.237-0.056c1.162-0.243 2.564-0.436 3.992-0.536l0.104-0.006c0.964 0 1.928-0.422 2.891-0.422s1.084 0 1.626 0 0.964 0 1.506 0 1.506 0.422 2.229 0.542c1.712 0.3 3.191 0.676 4.626 1.15l-0.229-0.065c1.448 0.478 2.643 0.967 3.799 1.526l-0.185-0.081c1.478 0.691 2.722 1.394 3.907 2.178l-0.112-0.070c2.299 1.559 4.281 3.349 5.988 5.377l0.036 0.044c0.854 0.953 1.665 1.995 2.404 3.090l0.065 0.103c0.422 0.602 0.964 1.084 1.385 1.747s0 1.024 0.542 1.566 1.084 1.626 1.446 2.53l56.742 140.469c1.455 3.502 2.3 7.571 2.3 11.836 0 17.455-14.15 31.605-31.605 31.605-13.189 0-24.491-8.079-29.228-19.558l-0.077-0.21-29.154-72.282c-10.94 37.722-17.232 81.054-17.232 125.855 0 2.745 0.024 5.484 0.071 8.217l-0.006-0.411c0 214.572 173.945 388.518 388.518 388.518s388.518-173.945 388.518-388.518c0-214.572-173.945-388.518-388.518-388.518v0c-17.465 0-31.624-14.158-31.624-31.624s14.158-31.624 31.624-31.624v0c249.503 0 451.765 202.262 451.765 451.765s-202.262 451.765-451.765 451.765v0zM531.817 387.223c2.934-1.16 6.329-1.899 9.876-2.046l0.063-0.002c0.723 0 1.385-0.422 2.108-0.422 3.875 0.074 7.549 0.841 10.933 2.182l-0.212-0.074c1.12 0.462 2.031 0.907 2.912 1.397l-0.141-0.072c2.785 1.345 5.183 2.953 7.322 4.848l-0.033-0.029c0.482 0.422 1.144 0.602 1.626 1.084l197.391 197.391c5.259 5.632 8.487 13.218 8.487 21.558 0 17.465-14.158 31.624-31.624 31.624-8.34 0-15.926-3.229-21.577-8.504l0.018 0.017-182.392-182.392-163.78 68.548c-3.416 1.376-7.377 2.175-11.525 2.175-17.465 0-31.624-14.158-31.624-31.624 0-12.782 7.583-23.792 18.496-28.778l0.198-0.081 183.296-76.74z" />
<glyph unicode="&#xe913;" glyph-name="invoice-icon" d="M884.736 740.413l-213.443 213.32c-3.854 3.868-9.183 6.262-15.072 6.267h-448.021c-47.093-0.070-85.25-38.227-85.32-85.313v-853.368c0.070-47.093 38.227-85.25 85.313-85.32h597.368c47.093 0.070 85.25 38.227 85.32 85.313v704.027c0 0.032 0 0.070 0 0.107 0 5.835-2.346 11.121-6.146 14.968l0.002-0.002zM677.56 887.173l140.493-140.493h-97.853c-23.562 0.023-42.657 19.118-42.68 42.678v0.002zM848.241 21.361c-0.023-23.562-19.118-42.657-42.678-42.68h-597.363c-23.562 0.023-42.657 19.118-42.68 42.678v853.322c0.023 23.562 19.118 42.657 42.678 42.68h426.683v-128.041c0.070-47.093 38.227-85.25 85.313-85.32h128.007zM739.656 363.090h-465.551c-11.967 0-21.668-9.701-21.668-21.668s9.701-21.668 21.668-21.668h465.551c11.967 0 21.668 9.701 21.668 21.668s-9.701 21.668-21.668 21.668v0zM739.656 491.008h-465.551c-11.967 0-21.668-9.701-21.668-21.668s9.701-21.668 21.668-21.668h465.551c11.967 0 21.668 9.701 21.668 21.668s-9.701 21.668-21.668 21.668v0zM739.656 235.172h-465.551c-11.967 0-21.668-9.701-21.668-21.668s9.701-21.668 21.668-21.668h465.551c11.967 0 21.668 9.701 21.668 21.668s-9.701 21.668-21.668 21.668v0zM531.374 109.425h-260.137c-11.967 0-21.668-9.701-21.668-21.668s9.701-21.668 21.668-21.668h260.137c11.967 0 21.668 9.701 21.668 21.668s-9.701 21.668-21.668 21.668v0zM460.718 597.053c0-11.967 9.701-21.668 21.668-21.668v0h260.137c11.967 0 21.668 9.701 21.668 21.668s-9.701 21.668-21.668 21.668h-259.973c-0.049 0-0.106 0.001-0.164 0.001-11.967 0-21.668-9.701-21.668-21.668 0 0 0 0 0-0.001v0zM315.515 613.192h-43.336c-11.967 0-21.668-9.701-21.668-21.668s9.701-21.668 21.668-21.668v0h21.668c0-11.967 9.701-21.668 21.668-21.668s21.668 9.701 21.668 21.668v4.096c25.451 9.156 43.323 33.088 43.323 61.194 0 35.833-29.048 64.881-64.881 64.881-0.039 0-0.077 0-0.116 0h0.006c-11.967 0-21.668 9.701-21.668 21.668s9.701 21.668 21.668 21.668v0h43.336c11.967 0 21.668 9.701 21.668 21.668s-9.701 21.668-21.668 21.668v0h-21.668c0 11.967-9.701 21.668-21.668 21.668s-21.668-9.701-21.668-21.668v-4.096c-25.451-9.156-43.323-33.088-43.323-61.194 0-35.833 29.048-64.881 64.881-64.881 0.039 0 0.077 0 0.116 0h-0.006c11.967 0 21.668-9.701 21.668-21.668s-9.701-21.668-21.668-21.668v0z" />
<glyph unicode="&#xe914;" glyph-name="link-icon" horiz-adv-x="1048" d="M1003.691 783.36l-134.030 132.608c-27.784 27.24-65.878 44.051-107.899 44.051-41.677 0-79.491-16.538-107.239-43.408l-148.667-145.027c-27.681-26.829-44.862-64.353-44.862-105.89 0-41.202 16.905-78.455 44.157-105.202l0.023-0.022 84.992 81.636c-1.615 5.865-2.543 12.599-2.543 19.549 0 22.514 9.738 42.753 25.232 56.736l0.067 0.060 94.606 92.217c13.864 13.473 32.811 21.78 53.698 21.78 21.172 0 40.351-8.536 54.283-22.354l-0.005 0.005 80.498-79.644c13.582-13.415 21.994-32.038 21.994-52.625 0-20.755-8.55-39.514-22.32-52.945l-0.015-0.015-94.663-91.876c-15.847-15.476-37.543-25.024-61.469-25.024-5.988 0-11.836 0.598-17.488 1.738l0.564-0.095-83.172-81.692c27.772-27.266 65.87-44.097 107.899-44.097 41.685 0 79.503 16.556 107.238 43.452l-0.039-0.038 148.537 144.896c27.728 26.818 44.941 64.358 44.941 105.918 0 41.254-16.961 78.546-44.289 105.284l-0.027 0.026zM459.207 252.53c1.019-4.958 1.603-10.655 1.603-16.489 0-24.241-10.075-46.13-26.265-61.706l-0.028-0.026-88.348-86.357c-14.099-13.655-33.342-22.071-54.551-22.071-21.41 0-40.816 8.576-54.971 22.481l0.012-0.011-82.091 80.839c-13.862 13.659-22.45 32.638-22.45 53.622 0 21.18 8.749 40.317 22.83 53.994l0.018 0.018 88.405 86.3c14.806 15.682 35.738 25.444 58.949 25.444 7.358 0 14.487-0.981 21.263-2.819l-0.568 0.131 85.333 84.48c-28.311 27.733-67.116 44.847-109.919 44.847-42.458 0-80.983-16.84-109.26-44.206l0.043 0.041-143.701-140.117c-28.204-27.354-45.708-65.602-45.708-107.938 0-42.001 17.228-79.978 45.003-107.25l0.023-0.022 136.533-134.94c28.311-27.685 67.091-44.768 109.861-44.768 42.483 0 81.029 16.854 109.318 44.239l143.318 139.963c28.172 27.359 45.654 65.593 45.654 107.91 0 41.982-17.206 79.945-44.951 107.223l-0.021 0.021zM366.080 291.044c9.396-9.379 22.367-15.179 36.693-15.179s27.297 5.8 36.694 15.18l-0.001-0.001 244.964 243.712c9.468 9.397 15.33 22.418 15.33 36.807 0 28.637-23.215 51.852-51.852 51.852-14.248 0-27.154-5.747-36.526-15.048l0.003 0.003-245.020-243.655c-9.563-9.417-15.488-22.505-15.488-36.977 0-14.331 5.81-27.305 15.204-36.694v0z" />
<glyph unicode="&#xe915;" glyph-name="logout-icon" d="M1015.936 472.619l-110.080 77.611c-4.826 3.422-10.835 5.47-17.323 5.47-16.633 0-30.122-13.462-30.165-30.084v-47.449h-528.555c-16.648 0-30.144-13.496-30.144-30.144s13.496-30.144 30.144-30.144v0h528.469v-47.36c0.044-16.627 13.532-30.088 30.165-30.088 6.488 0 12.497 2.048 17.417 5.533l-0.094-0.063 110.080 77.611c7.701 5.546 12.656 14.487 12.656 24.585 0 10.061-4.919 18.974-12.483 24.464l-0.087 0.060zM864.853 254.507c-4.327 2.547-9.532 4.051-15.088 4.051-11.090 0-20.78-5.993-26.009-14.917l-0.077-0.142c-72.038-123.141-203.641-204.544-354.256-204.544-225.909 0-409.045 183.136-409.045 409.045s183.136 409.045 409.045 409.045c150.615 0 282.217-81.403 353.211-202.613l1.045-1.931c5.31-9.063 15.001-15.054 26.091-15.054 16.644 0 30.137 13.493 30.137 30.137 0 5.554-1.502 10.757-4.123 15.225l0.077-0.142c-82.659 141.277-233.651 234.667-406.455 234.667-259.206 0-469.333-210.128-469.333-469.333s210.128-469.333 469.333-469.333c172.804 0 323.795 93.39 405.256 232.452l1.199 2.215c2.547 4.327 4.051 9.532 4.051 15.088 0 11.090-5.993 20.78-14.917 26.009l-0.142 0.077z" />
<glyph unicode="&#xe916;" glyph-name="message-icon" d="M897.229 960c58.841-0.648 106.292-48.499 106.292-107.432 0-0.146 0-0.292-0.001-0.438v0.023-539.279c0.001-0.123 0.001-0.27 0.001-0.416 0-58.933-47.451-106.784-106.231-107.431l-0.061-0.001h-145.695l24.084-239.739c0.049-0.62 0.077-1.343 0.077-2.072 0-10.683-6.032-19.957-14.876-24.602l-0.152-0.073c-3.347-1.603-7.275-2.54-11.422-2.54-7.159 0-13.666 2.791-18.492 7.345l0.013-0.012-258.621 261.571h-345.375c-58.842 0.648-106.292 48.498-106.292 107.432 0 0.161 0 0.321 0.001 0.481v-0.025 539.279c-0.001 0.123-0.001 0.27-0.001 0.416 0 58.933 47.451 106.784 106.231 107.431l0.061 0.001zM897.229 906.056h-770.458c-0.125 0.001-0.273 0.002-0.421 0.002-29.182 0-52.838-23.657-52.838-52.838 0-0.389 0.004-0.778 0.013-1.165l-0.001 0.058v-539.279c-0.007-0.33-0.012-0.718-0.012-1.108 0-29.182 23.657-52.838 52.838-52.838 0.148 0 0.296 0.001 0.444 0.002h356.329c7.264-0.012 13.85-2.899 18.685-7.584l-0.007 0.007 213.811-216.146-19.907 194.232c-0.029 0.474-0.045 1.029-0.045 1.587 0 14.968 11.773 27.187 26.564 27.902l0.064 0.002h175.186c0.125-0.001 0.273-0.002 0.421-0.002 29.182 0 52.838 23.657 52.838 52.838 0 0.389-0.004 0.778-0.013 1.165l0.001-0.058v539.32c0.007 0.33 0.012 0.718 0.012 1.108 0 29.182-23.657 52.838-52.838 52.838-0.148 0-0.296-0.001-0.444-0.002h0.023zM777.667 676.68c0.365 0.005 0.797 0.008 1.229 0.008 52.030 0 94.208-42.178 94.208-94.208s-42.178-94.208-94.208-94.208c-52.027 0-94.203 42.174-94.208 94.2v0c0 0.039 0 0.085 0 0.131 0 51.598 41.481 93.507 92.914 94.199l0.065 0.001zM511.427 676.68c0.365 0.005 0.797 0.008 1.229 0.008 52.030 0 94.208-42.178 94.208-94.208s-42.178-94.208-94.208-94.208c-52.027 0-94.203 42.174-94.208 94.2v0c0 0.038 0 0.084 0 0.129 0 51.655 41.573 93.6 93.086 94.201l0.057 0.001zM246.17 676.68c0.365 0.005 0.797 0.008 1.229 0.008 52.030 0 94.208-42.178 94.208-94.208s-42.178-94.208-94.208-94.208c-52.027 0-94.203 42.174-94.208 94.2v0c0 0.038 0 0.084 0 0.129 0 51.641 41.55 93.577 93.043 94.201l0.059 0.001zM777.544 622.776c-0.183 0.003-0.398 0.005-0.614 0.005-22.35 0-40.468-18.118-40.468-40.468s18.118-40.468 40.468-40.468c22.348 0 40.466 18.116 40.468 40.464v0c0.006 0.256 0.009 0.558 0.009 0.86 0 21.954-17.789 39.754-39.739 39.772h-0.002zM511.304 622.776c-0.183 0.003-0.398 0.005-0.614 0.005-22.35 0-40.468-18.118-40.468-40.468s18.118-40.468 40.468-40.468c22.348 0 40.466 18.116 40.468 40.464v0c0.006 0.256 0.009 0.558 0.009 0.861 0 21.897-17.695 39.661-39.566 39.772h-0.011zM246.047 622.776c-0.183 0.003-0.398 0.005-0.614 0.005-22.35 0-40.468-18.118-40.468-40.468s18.118-40.468 40.468-40.468c22.348 0 40.466 18.116 40.468 40.464v0c0.006 0.256 0.009 0.558 0.009 0.86 0 21.911-17.719 39.684-39.609 39.772h-0.008z" />
<glyph unicode="&#xe917;" glyph-name="more-op-icon" d="M243.81 448c0-67.326-54.579-121.905-121.905-121.905s-121.905 54.579-121.905 121.905c0 67.326 54.579 121.905 121.905 121.905s121.905-54.579 121.905-121.905zM633.905 448c0-67.326-54.579-121.905-121.905-121.905s-121.905 54.579-121.905 121.905c0 67.326 54.579 121.905 121.905 121.905s121.905-54.579 121.905-121.905zM1024 448c0-67.326-54.579-121.905-121.905-121.905s-121.905 54.579-121.905 121.905c0 67.326 54.579 121.905 121.905 121.905s121.905-54.579 121.905-121.905z" />
<glyph unicode="&#xe918;" glyph-name="plus-icon" horiz-adv-x="1023" d="M36.181 411.534c-20.010 0.129-36.181 16.38-36.181 36.408 0 0.020 0 0.040 0 0.061v-0.003c0 0.068-0.001 0.148-0.001 0.228 0 19.857 16.097 35.954 35.954 35.954 0.080 0 0.16 0 0.241-0.001h438.829v439.125c0.127 20.154 16.383 36.47 36.501 36.693h0.021c20.010-0.128 36.182-16.38 36.182-36.408 0-0.1 0-0.2-0.001-0.3v0.015-438.841h438.841c0.169 0.003 0.369 0.004 0.569 0.004 20.108 0 36.409-16.301 36.409-36.409 0-0.022 0-0.043 0-0.065v0.003c-0.096-20.226-16.467-36.597-36.684-36.693h-438.964v-438.841c0-0.017 0-0.037 0-0.057 0-20.088-16.268-36.376-36.349-36.409h-0.003c-20.226 0.096-36.597 16.467-36.693 36.684v438.85z" />
<glyph unicode="&#xe919;" glyph-name="receipt-icon" d="M87.142 960c-47.966-0.26-86.78-39.074-87.040-87.015v-849.945c0.317-47.943 39.097-86.723 87.010-87.040h849.95c47.943 0.317 86.723 39.097 87.040 87.010v850.001c-0.26 47.966-39.074 86.78-87.015 87.040h-0.025zM87.142 903.014h849.92c0.215 0.006 0.469 0.009 0.723 0.009 16.259 0 29.44-13.181 29.44-29.44 0-0.219-0.002-0.438-0.007-0.656l0.001 0.032v-849.92c0.005-0.2 0.008-0.437 0.008-0.673 0-16.288-13.204-29.491-29.491-29.491-0.237 0-0.473 0.003-0.708 0.008l0.035-0.001h-849.92c-0.2-0.005-0.437-0.008-0.673-0.008-16.288 0-29.491 13.204-29.491 29.491 0 0.237 0.003 0.473 0.008 0.708l-0.001-0.035v849.971c-0.004 0.17-0.006 0.371-0.006 0.572 0 16.259 13.181 29.44 29.44 29.44 0.254 0 0.507-0.003 0.76-0.010l-0.037 0.001zM512.102 846.694v-56.32h-13.466c-1.572 0.084-3.413 0.131-5.265 0.131-25.251 0-48.433-8.856-66.61-23.632l0.195 0.153c-17.582-15.133-28.698-37.354-28.877-62.177v-0.031c0.231-47.469 38.65-85.887 86.096-86.118h0.022c31.795 0 55.552 1.382 56.986 1.434 0.123 0.002 0.267 0.003 0.413 0.003 15.948 0 28.877-12.929 28.877-28.877 0-0.145-0.001-0.29-0.003-0.434v0.022c0.019-0.347 0.030-0.752 0.030-1.16 0-7.245-3.397-13.696-8.685-17.849l-0.049-0.037c-8.42-6.215-19.004-9.947-30.459-9.947-1.462 0-2.909 0.061-4.34 0.18l0.187-0.013h-128.512v-56.986h56.32v-56.781h56.986v56.576h14.694c1.279-0.053 2.78-0.084 4.288-0.084 25.66 0 49.259 8.825 67.928 23.606l-0.228-0.174c17.606 15.177 28.693 37.497 28.723 62.408v0.005c-0.26 47.542-38.73 86.012-86.247 86.272h-1.561s-24.422-1.331-55.398-1.331c-0.139-0.002-0.302-0.004-0.466-0.004-15.863 0-28.723 12.86-28.723 28.723 0 0.199 0.002 0.398 0.006 0.597v-0.030c-0.017 0.334-0.027 0.725-0.027 1.119 0 7.319 3.39 13.846 8.686 18.097l0.045 0.035c8.247 6.156 18.641 9.857 29.9 9.857 1.496 0 2.977-0.065 4.44-0.193l-0.19 0.013 128-0.563 0.358 56.986h-57.293v56.781zM227.174 391.014v-56.883h569.754v56.986zM227.174 220.058v-56.986h569.754v57.088z" />
<glyph unicode="&#xe91a;" glyph-name="request-icon" d="M87.040 960c-47.943-0.317-86.723-39.097-87.040-87.010v-849.95c0.26-47.966 39.074-86.78 87.015-87.040h849.945c47.966 0.26 86.78 39.074 87.040 87.015v849.945c-0.317 47.943-39.097 86.723-87.010 87.040h-0.030zM87.040 903.014h849.92c0.215 0.006 0.469 0.009 0.723 0.009 16.288 0 29.491-13.204 29.491-29.491 0-0.219-0.002-0.438-0.007-0.656l0.001 0.033v-849.92c0.004-0.186 0.007-0.404 0.007-0.623 0-16.288-13.204-29.491-29.491-29.491-0.254 0-0.508 0.003-0.761 0.010l0.037-0.001h-849.92c-0.215-0.006-0.469-0.009-0.723-0.009-16.288 0-29.491 13.204-29.491 29.491 0 0.219 0.002 0.438 0.007 0.656l-0.001-0.033v849.92c-0.004 0.17-0.006 0.371-0.006 0.572 0 16.288 13.204 29.491 29.491 29.491 0.254 0 0.507-0.003 0.76-0.010l-0.037 0.001zM483.174 789.402c-15.722 0-28.467-12.745-28.467-28.467v0-170.906c0-15.722 12.745-28.467 28.467-28.467v0h341.811c15.722 0 28.467 12.745 28.467 28.467v0 170.906c0 15.722-12.745 28.467-28.467 28.467v0zM511.642 732.416h284.826v-113.92h-284.774zM483.174 505.088c-15.722 0-28.467-12.745-28.467-28.467v0-170.906c0-15.722 12.745-28.467 28.467-28.467v0h341.811c15.722 0 28.467 12.745 28.467 28.467v0 170.906c0 15.722-12.745 28.467-28.467 28.467v0zM511.642 448.102h284.826v-113.92h-284.774zM170.598 732.467v-56.986h170.906v56.986zM170.598 448.051v-56.986h170.906v56.986zM170.906 163.635v-56.986h676.403v56.986h-676.403z" />
<glyph unicode="&#xe91b;" glyph-name="round-done-icon" d="M512 960c-282.77 0-512-229.23-512-512s229.23-512 512-512c282.77 0 512 229.23 512 512v0c-0.32 282.641-229.359 511.68-511.969 512h-0.031zM512 3.174c-245.67 0-444.826 199.155-444.826 444.826s199.155 444.826 444.826 444.826c245.67 0 444.826-199.155 444.826-444.826v0c-0.349-245.53-199.296-444.477-444.793-444.826h-0.033zM697.395 615.629l-264.038-263.987-106.701 106.701c-6.020 5.762-14.2 9.309-23.209 9.309-18.55 0-33.587-15.038-33.587-33.587 0-9.022 3.557-17.213 9.345-23.247l-0.011 0.012 130.458-130.458c6.076-6.067 14.466-9.819 23.731-9.819s17.655 3.752 23.732 9.819v0l287.642 287.642c6.647 6.155 10.794 14.928 10.794 24.669 0 18.55-15.038 33.587-33.587 33.587-9.741 0-18.514-4.147-24.649-10.772l-0.020-0.022z" />
<glyph unicode="&#xe91c;" glyph-name="search-icon" d="M1011.456 8.704l-246.17 246.17c60.751 73.746 97.59 169.171 97.59 273.201 0 238.149-193.058 431.206-431.206 431.206s-431.206-193.058-431.206-431.206c0-238.149 193.058-431.206 431.206-431.206 104.029 0 199.454 36.838 273.942 98.182l-0.741-0.592 246.17-245.76c7.698-7.604 18.283-12.301 29.966-12.301 23.555 0 42.65 19.095 42.65 42.65 0 11.631-4.656 22.175-12.206 29.869l0.007-0.007zM431.514 182.784c-190.91 0.058-345.651 154.835-345.651 345.754 0 190.954 154.799 345.754 345.754 345.754s345.754-154.799 345.754-345.754c0-0.036 0-0.072 0-0.108v0.006c-0.262-190.846-154.946-345.477-345.788-345.651h-0.017z" />
<glyph unicode="&#xe91d;" glyph-name="send-icon" d="M1015.192 448.014c-0.016 5.408-2.087 10.812-6.214 14.939-1.987 1.987-4.269 3.497-6.706 4.531l0.137-0.065-674.858 289.293c-7.835 3.27-17.041 1.742-23.304-4.522-5.916-5.916-7.607-14.455-5.075-21.872l0.049-0.127 97.91-282.228-97.91-282.228c-2.61-7.545-0.939-16.098 4.964-22.031l0.531-0.531c6.286-5.843 15.201-7.181 22.681-4.040l0.136 0.064 674.841 289.139c2.313 0.97 4.608 2.485 6.604 4.481 4.191 4.191 6.262 9.699 6.213 15.192v0.004zM354.891 698.72l535.681-229.578-455.998 0.085zM354.977 197.223l79.598 229.578 456.066-0.017z" />
<glyph unicode="&#xe91e;" glyph-name="settings-icon" d="M512 713.483c-146.622 0-265.483-118.861-265.483-265.483s118.861-265.483 265.483-265.483c146.622 0 265.483 118.861 265.483 265.483v0c-0.152 146.561-118.922 265.331-265.469 265.483h-0.014zM512 220.449c-125.673 0-227.551 101.878-227.551 227.551s101.878 227.551 227.551 227.551c125.673 0 227.551-101.878 227.551-227.551v0c-0.152-125.611-101.939-227.399-227.536-227.551h-0.015zM971.286 561.798h-38.289c-10.744 39.336-25.389 73.719-43.98 105.515l1.105-2.046 27.025 27.025c9.536 9.545 15.434 22.727 15.434 37.287s-5.898 27.741-15.434 37.287v0l-86.283 86.283c-9.675 9.247-22.816 14.938-37.287 14.938s-27.612-5.691-37.307-14.958l0.020 0.019-27.025-27.025c-29.748 17.455-64.131 32.085-100.424 42.112l-3.045 0.718v38.289c0 29.138-23.621 52.758-52.758 52.758h-122.123c-29.103-0.025-52.688-23.611-52.714-52.711v-38.292c-39.338-10.757-73.72-25.401-105.521-43.982l2.052 1.108-27.025 27.025c-9.675 9.247-22.816 14.938-37.287 14.938s-27.612-5.691-37.307-14.958l0.020 0.019-86.283-86.283c-9.536-9.545-15.434-22.727-15.434-37.287s5.898-27.741 15.434-37.287v0l27.025-27.025c-17.475-29.75-32.106-64.135-42.117-100.436l-0.713-3.033h-38.289c-29.122 0-52.733-23.595-52.758-52.711v-122.081c0.025-29.103 23.611-52.688 52.711-52.714h38.291c10.757-39.338 25.401-73.72 43.982-105.521l-1.108 2.052-27.025-27.025c-9.536-9.545-15.434-22.727-15.434-37.287s5.898-27.741 15.434-37.287l86.283-86.372c9.671-9.257 22.813-14.955 37.287-14.955s27.616 5.698 37.307 14.974l-0.020-0.019 27.025 27.025c29.747-17.464 64.128-32.107 100.419-42.154l3.050-0.72v-38.289c0.025-29.118 23.636-52.714 52.758-52.714 0 0 0 0 0 0h122.079c29.103 0.025 52.688 23.611 52.714 52.711v38.292c39.338 10.757 73.72 25.401 105.521 43.982l-2.052-1.108 27.025-27.025c9.675-9.247 22.816-14.938 37.287-14.938s27.612 5.691 37.307 14.958l-0.020-0.019 86.328 86.283c9.536 9.545 15.434 22.727 15.434 37.287s-5.898 27.741-15.434 37.287v0l-27.025 27.025c17.464 29.747 32.107 64.128 42.154 100.419l0.72 3.050h38.289c29.118 0.025 52.714 23.636 52.714 52.758 0 0 0 0 0 0v0 122.123c-0.051 29.093-23.621 52.663-52.709 52.714h-0.005zM986.067 386.961c-0.025-8.153-6.628-14.756-14.779-14.781h-68.12l-3.428-14.648c-10.663-45.333-27.677-85.305-50.341-121.367l0.966 1.648-7.969-12.778 48.039-48.128c2.681-2.676 4.34-6.376 4.34-10.463s-1.659-7.787-4.34-10.462v0l-86.417-86.417c-2.676-2.681-6.376-4.34-10.463-4.34s-7.787 1.659-10.462 4.34v0l-48.128 48.128-12.778-7.969c-34.396-21.773-74.351-38.847-116.986-49.012l-2.688-0.541-14.648-3.428v-68.118c-0.025-8.153-6.628-14.756-14.779-14.781h-122.17c-8.153 0.025-14.756 6.628-14.781 14.779v68.12l-14.648 3.428c-45.32 10.697-85.275 27.74-121.317 50.429l1.643-0.965-12.778 7.969-48.173-48.039c-2.676-2.681-6.376-4.34-10.463-4.34s-7.787 1.659-10.462 4.34v0l-86.372 86.417c-2.681 2.676-4.34 6.376-4.34 10.463s1.659 7.787 4.34 10.462v0l48.128 48.128-8.058 12.778c-21.773 34.396-38.847 74.351-49.012 116.986l-0.541 2.688-3.25 14.826h-68.118c-8.153 0.025-14.756 6.628-14.781 14.779v121.992c0.125 8.077 6.69 14.579 14.779 14.603h68.12l3.428 14.648c10.635 45.38 27.653 85.401 50.339 121.498l-0.965-1.645 7.969 12.778-48.039 48.173c-2.681 2.676-4.34 6.376-4.34 10.463s1.659 7.787 4.34 10.462v0l86.372 86.372c2.676 2.681 6.376 4.34 10.463 4.34s7.787-1.659 10.462-4.34v0l48.173-48.173 12.778 8.103c34.399 21.712 74.358 38.728 116.99 48.838l2.684 0.537 14.826 3.428v68.118c0.025 8.153 6.628 14.756 14.779 14.781h122.081c0 0 0 0 0 0 8.172 0 14.8-6.612 14.826-14.779v-68.12l14.648-3.428c45.268-10.683 85.178-27.695 121.187-50.34l-1.646 0.966 12.778-7.969 48.128 48.039c2.676 2.681 6.376 4.34 10.463 4.34s7.787-1.659 10.462-4.34v0l86.417-86.372c2.681-2.676 4.34-6.376 4.34-10.463s-1.659-7.787-4.34-10.462v0l-48.217-48.173 7.969-12.778c21.781-34.395 38.855-74.351 49.013-116.99l0.54-2.685 3.428-14.648h68.118c8.153-0.025 14.756-6.628 14.781-14.779v-0.002zM512 637.618c-104.723 0-189.618-84.895-189.618-189.618s84.895-189.618 189.618-189.618c104.723 0 189.618 84.895 189.618 189.618v0c-0.127 104.672-84.946 189.491-189.606 189.618h-0.012zM512 296.27c-83.774 0-151.686 67.912-151.686 151.686s67.912 151.686 151.686 151.686c83.774 0 151.686-67.912 151.686-151.686v0c-0.101-83.733-67.953-151.584-151.676-151.686h-0.010z" />
<glyph unicode="&#xe91f;" glyph-name="share-icon" d="M806.605 283.136c-0.188 0.001-0.41 0.001-0.632 0.001-47.778 0-91.017-19.437-122.24-50.835l-0.008-0.008c-8.731-8.779-16.548-18.483-23.286-28.949l-0.42-0.696-299.725 182.016c7.832 18.944 12.38 40.941 12.38 64s-4.548 45.056-12.795 65.143l0.415-1.143 300.186 181.094c31.46-48.865 85.581-80.767 147.154-80.767 96.34 0 174.438 78.099 174.438 174.438s-78.099 174.438-174.438 174.438c-96.34 0-174.438-78.099-174.438-174.438 0-22.509 4.263-44.023 12.027-63.777l-0.41 1.184-300.544-181.146c-31.462 47.628-84.759 78.618-145.294 78.618-95.859 0-173.568-77.709-173.568-173.568s77.709-173.568 173.568-173.568c60.535 0 113.832 30.99 144.892 77.97l0.402 0.647 300.339-182.272c-7.217-18.356-11.401-39.614-11.401-61.85 0-95.802 77.663-173.466 173.466-173.466s173.466 77.663 173.466 173.466c0 95.802-77.663 173.466-173.466 173.466-0.006 0-0.012 0-0.018 0h0.001z" />
<glyph unicode="&#xe920;" glyph-name="support-center-icon" d="M658.475 258.347v17.835c5.286 4.32 10.029 8.631 14.538 13.173l0.011 0.011c35.992 39.516 60.256 90.289 66.95 146.456l0.122 1.256c34.526 5.394 64.008 23.683 83.909 49.692l0.23 0.313c28.117 39.723 30.635 96.896 7.168 168.619-1.438 4.218-4.16 7.685-7.693 10.025l-0.072 0.045-10.667 7.168c0.050 1.904 0.078 4.145 0.078 6.393 0 65.272-23.793 124.986-63.18 170.943l0.297-0.355c-52.139 58.709-132.181 88.363-238.165 88.747-6.762 0.532-14.642 0.835-22.593 0.835-84.112 0-160.302-33.922-215.634-88.832l0.019 0.019c-39.090-45.602-62.883-105.317-62.883-170.588 0-2.248 0.028-4.489 0.084-6.724l-0.007 0.331-10.667-7.168c-3.606-2.384-6.328-5.851-7.725-9.933l-0.041-0.136c-23.467-72.107-20.949-128.896 7.168-168.619 20.068-26.524 49.548-45.012 83.387-50.502l0.752-0.101c6.842-57.501 31.167-108.334 67.43-148.091l-0.188 0.209c4.522-4.546 9.265-8.857 14.218-12.92l0.332-0.264v-17.835c-74.24-14.336-370.603-83.925-365.568-281.6 0-10.698 8.673-19.371 19.371-19.371h985.173c0 0 0 0 0 0 10.683 0 19.346 8.648 19.371 19.326v0.002c5.077 197.717-291.285 267.307-365.525 281.643zM272.171 480.469c-16.854 5.73-30.872 16.125-40.929 29.642l-0.159 0.224h0.981c-10.34 19.752-16.407 43.147-16.407 67.96 0 21.63 4.61 42.182 12.902 60.729l-0.377-0.945 14.165 9.515c5.231 3.523 8.626 9.424 8.626 16.117 0 0.665-0.033 1.322-0.099 1.97l0.007-0.082c-0.231 3.847-0.362 8.346-0.362 12.875 0 55.957 20.064 107.229 53.389 147.013l-0.291-0.357c43.776 49.579 114.133 74.368 208.384 74.752 6.761 0.608 14.624 0.954 22.569 0.954 72.568 0 138.384-28.913 186.555-75.847l-0.057 0.056c33.034-39.426 53.098-90.698 53.098-146.655 0-4.529-0.131-9.028-0.391-13.492l0.029 0.617c-0.059-0.566-0.092-1.223-0.092-1.888 0-6.693 3.395-12.594 8.557-16.073l0.069-0.044 14.165-9.515c8.049-17.6 12.742-38.178 12.742-59.852 0-24.813-6.15-48.19-17.010-68.69l0.385 0.798c-10.285-13.754-24.375-24.151-40.706-29.691l-0.595-0.175c19.936 22.606 32.106 52.475 32.106 85.187 0 4.123-0.193 8.2-0.571 12.224l0.039-0.514c-3.844 21.936-15.104 40.743-31.051 54.159l-0.138 0.113c-8.533 193.835-144.213 215.552-202.752 215.552-0.179 0-0.392 0.001-0.604 0.001-12.857 0-25.481-0.993-37.801-2.907l1.371 0.175c-10.941 1.738-23.557 2.731-36.405 2.731-0.221 0-0.442 0-0.664-0.001h0.034c-58.155 0-193.835-21.333-202.752-215.552-16.192-13.43-27.575-32.16-31.489-53.502l-0.085-0.556c-0.347-3.548-0.545-7.671-0.545-11.839 0-32.72 12.192-62.593 32.281-85.323l-0.12 0.138zM713.131 639.403c-6.887-0.424-14.938-0.666-23.044-0.666-77.168 0-149.224 21.892-210.294 59.804l1.701-0.984c-3.105 2.21-6.974 3.533-11.153 3.533-5.534 0-10.526-2.32-14.055-6.041l-0.008-0.009c-38.505-32.748-88.63-52.875-143.44-53.503l-0.134-0.001c10.453 137.045 93.44 166.869 163.2 166.869 0.373 0.003 0.815 0.004 1.257 0.004 11.269 0 22.305-0.995 33.027-2.902l-1.132 0.167c1.167-0.251 2.508-0.394 3.883-0.394s2.715 0.143 4.009 0.416l-0.126-0.022c9.612 1.74 20.676 2.734 31.972 2.734 0.415 0 0.829-0.001 1.243-0.004h-0.064c69.205 0 152.533-30.635 162.133-168.832zM319.488 476.8h0.768c-0.010 4.92-1.852 9.409-4.881 12.82l0.017-0.020c-21.826 20.045-35.457 48.716-35.457 80.57 0 0.175 0 0.349 0.001 0.523v-0.027c1.656 13.198 8.119 24.638 17.551 32.71l0.070 0.058c1.294-0.021 2.821-0.033 4.351-0.033 63.892 0 122.96 20.652 170.894 55.646l-0.824-0.573c61.753-36.119 135.871-57.644 214.978-58.154l0.147-0.001c1.899-0.051 4.135-0.080 6.377-0.080 11.833 0 23.479 0.804 34.885 2.361l-1.326-0.148c9.241-7.925 15.598-18.983 17.418-31.51l0.033-0.276c0-0.075 0-0.164 0-0.254 0-31.93-13.626-60.677-35.381-80.744l-0.075-0.069c-3.012-3.391-4.854-7.88-4.864-12.798v-10.071l-112.768-60.715c-9.978 9.456-23.488 15.271-38.357 15.271-30.822 0-55.808-24.986-55.808-55.808s24.986-55.808 55.808-55.808c30.822 0 55.808 24.986 55.808 55.808 0 0.016 0 0.033 0 0.049v-0.003c0.042 0.784 0.066 1.701 0.066 2.624s-0.024 1.84-0.071 2.752l0.005-0.128 88.96 47.701c-8.141-39.909-26.436-74.654-52.065-102.555l0.14 0.155c-31.007-29.891-73.254-48.305-119.802-48.305-3.064 0-6.108 0.080-9.133 0.237l0.423-0.018h-9.643c-2.56-0.135-5.557-0.212-8.572-0.212-46.485 0-88.691 18.324-119.788 48.142l0.061-0.058c-37.165 42.92-59.844 99.271-59.947 160.917v0.022zM570.112 365.525c0-9.426-7.641-17.067-17.067-17.067s-17.067 7.641-17.067 17.067c0 9.426 7.641 17.067 17.067 17.067v0c9.426 0 17.067-7.641 17.067-17.067v0zM492.544-2.731h-453.163c15.317 145.579 251.989 206.421 326.016 222.123v-34.816c0-43.989 53.504-77.525 127.147-83.157zM404.181 184.576v66.987c28.911-13.736 62.822-21.757 98.605-21.757 1.514 0 3.025 0.014 4.532 0.043l-0.226-0.003h9.685c1.281-0.025 2.792-0.040 4.307-0.040 35.784 0 69.694 8.021 100.031 22.363l-1.425-0.606v-66.987c0-18.432-42.069-44.971-107.776-44.971s-107.733 26.667-107.733 44.971zM531.328-3.413v105.131c73.643 5.035 127.147 38.784 127.147 83.157v33.835c74.624-15.488 310.101-76.373 326.016-222.123z" />
<glyph unicode="&#xe921;" glyph-name="trip-icon" d="M832.963 771.011h-109.158l-18.801 58.941c-13.76 51.253-59.527 88.473-114.086 89.087l-0.069 0.001h-131.727c-54.618-0.61-100.38-37.811-113.964-88.212l-0.192-0.835-18.801-58.982h-116.654c-0.183 0.001-0.399 0.001-0.615 0.001-115.37 0-208.896-93.526-208.896-208.896 0-0.202 0-0.404 0.001-0.606v0.032-375.071c-0.002-0.366-0.004-0.799-0.004-1.232 0-115.031 93.251-208.282 208.282-208.282 0.433 0 0.867 0.001 1.299 0.004h623.385c0.366-0.002 0.799-0.004 1.232-0.004 115.031 0 208.282 93.251 208.282 208.282 0 0.433-0.001 0.867-0.004 1.299v-0.067 375.071c0.002 0.354 0.003 0.773 0.003 1.191 0 115.031-93.251 208.282-208.282 208.282-0.433 0-0.866-0.001-1.299-0.004h0.066zM392.643 818.688c6.905 31.066 34.226 53.95 66.892 53.95 0.301 0 0.602-0.002 0.902-0.006h131.681c0.317 0.005 0.691 0.008 1.066 0.008 31.858 0 58.668-21.61 66.572-50.972l0.111-0.482 16.384-50.176h-299.909zM233.472 23.368h-22.733c-0.097 0-0.213 0-0.328 0-89.876 0-162.734 72.859-162.734 162.734 0 0.115 0 0.231 0 0.346v-0.018 375.112c0 0.097 0 0.213 0 0.328 0 89.876 72.859 162.734 162.734 162.734 0.115 0 0.231 0 0.346 0h22.715zM770.376 23.368h-490.619v701.235h490.291s0-701.235 0-701.235zM996.188 365.834v-179.364c0-0.097 0-0.213 0-0.328 0-89.876-72.859-162.734-162.734-162.734-0.115 0-0.231 0-0.346 0h-16.366v701.194h16.384c0.097 0 0.213 0 0.328 0 89.876 0 162.734-72.859 162.734-162.734 0-0.115 0-0.231 0-0.346v0.018z" />
<glyph unicode="&#xe922;" glyph-name="up-arrow-icon" d="M523.947 746.667c-0.026 0-0.056 0-0.087 0-20.236 0-38.553-8.22-51.794-21.502l-450.562-450.562c-12.691-13.173-20.509-31.117-20.509-50.888 0-40.53 32.856-73.387 73.387-73.387 19.77 0 37.715 7.818 50.91 20.531l-0.023-0.022 398.677 398.677 398.677-398.677c13.173-12.691 31.117-20.509 50.888-20.509 40.53 0 73.387 32.856 73.387 73.387 0 19.77-7.818 37.715-20.531 50.91l0.022-0.023-450.56 450.56c-13.242 13.285-31.559 21.504-51.796 21.504-0.031 0-0.061 0-0.092 0h0.005z" />
<glyph unicode="&#xe923;" glyph-name="wallet-icon" d="M955.704 499.155h-34.104v273.096c0 9.417-7.634 17.052-17.052 17.052v0h-103.424l-33.926 107.52c-2.251 6.963-8.677 11.91-16.258 11.91-2.157 0-4.22-0.4-6.119-1.131l0.117 0.039-138.997-52.981-62.509 97.414c-2.441 3.777-6.248 6.492-10.707 7.459l-0.112 0.020c-1.096 0.256-2.353 0.403-3.646 0.403-3.454 0-6.662-1.049-9.325-2.845l0.059 0.038-256.223-167.847h-144.028c-65.941-0.076-119.376-53.511-119.452-119.445v-614.407c0.101-65.931 53.521-119.351 119.442-119.452h785.062c9.417 0 17.052 7.634 17.052 17.052v0 204.8h34.148c0.013 0 0.029 0 0.045 0 37.694 0 68.252 30.557 68.252 68.252v0 204.8c0 37.694-30.557 68.252-68.252 68.252-0.016 0-0.031 0-0.047 0h0.002zM955.704 465.007c0.368 0.014 0.799 0.022 1.233 0.022 18.86 0 34.148-15.289 34.148-34.148s-15.289-34.148-34.148-34.148c-0.434 0-0.865 0.008-1.295 0.024l0.062-0.002h-34.104v68.296zM887.452 755.2v-170.696h-21.638l-53.871 170.696zM830.019 584.504h-49.731l-47.327 141.935c-2.326 6.835-8.688 11.665-16.178 11.665-0.010 0-0.019 0-0.029 0h0.001c-0.059 0-0.13 0-0.2 0-17.985 0-34.26 7.319-46.010 19.141l-10.020 10.020c-3.083 3.071-7.337 4.97-12.033 4.97-2.072 0-4.057-0.369-5.894-1.046l0.118 0.038-505.055-186.724h-18.209c-23.691 0.006-45.118 9.695-60.54 25.324l-0.009 0.009 681.183 259.384zM744.314 584.504h-508.349l408.131 150.884 2.271-2.271c15.092-15.163 35.080-25.442 57.391-28.266l0.487-0.050zM523.932 919.174l49.286-76.934-398.024-151.374zM119.452 755.2h91.937l-172.299-112.907c-3.047 8.186-4.865 17.641-4.986 27.506l-0.001 0.053c0.051 47.116 38.232 85.298 85.343 85.348h0.005zM887.452-29.852h-768c-47.116 0.051-85.298 38.232-85.348 85.343v530.526l0.49-0.445c1.336-1.336 2.76-2.538 4.141-3.829s2.849-2.716 4.452-3.962 2.983-2.271 4.452-3.428 3.117-2.404 4.764-3.562 3.206-2.003 4.853-2.983 3.339-2.093 5.12-3.072 3.517-1.692 5.254-2.582 3.428-1.692 5.209-2.538 3.873-1.469 5.832-2.137 3.428-1.38 5.209-1.914 4.452-1.158 6.545-1.692 3.25-0.935 4.942-1.247c2.493-0.534 5.12-0.846 7.658-1.202 1.425 0 2.805-0.49 4.452-0.668 4.051-0.401 8.103-0.579 12.199-0.579h22.261l0.223-0.668 1.558 0.89h743.513v-153.6h-187.526c-65.984 0-119.474-53.49-119.474-119.474s53.49-119.474 119.474-119.474h187.748zM989.852 226.148c0-18.86-15.289-34.148-34.148-34.148v0h-256c-46.29 1.091-83.399 38.875-83.399 85.326s37.108 84.235 83.298 85.324l0.101 0.002h256c4.36 0.048 8.585 0.499 12.677 1.319l-0.433-0.072 2.894 0.579c4.359 0.96 8.138 2.17 11.758 3.684l-0.449-0.167 0.579 0.267c2.848 1.225 5.188 2.416 7.444 3.735l-0.32-0.173zM368.15 499.155h68.252v-34.148h-68.252zM231.647 499.155h68.252v-34.148h-68.252zM777.706 499.155h58.502v-34.148h-58.502zM641.202 499.155h68.252v-34.148h-68.252zM99.328 501.56l-7.969-33.124c8.436-2.135 18.13-3.383 28.109-3.428h43.927v34.148h-43.943c-7.151 0.023-14.087 0.898-20.725 2.529l0.602-0.125zM504.654 499.155h68.252v-34.148h-68.252zM99.328 57.856l-7.969-33.124c8.437-2.139 18.132-3.387 28.111-3.428h43.924v34.148h-43.943c-7.151 0.022-14.087 0.897-20.725 2.529l0.601-0.125zM777.706 55.452h58.502v-34.148h-58.502zM368.15 55.452h68.252v-34.148h-68.252zM641.202 55.452h68.252v-34.148h-68.252zM231.647 55.452h68.252v-34.148h-68.252zM504.654 55.452h68.252v-34.148h-68.252zM699.793 328.504c-28.277 0-51.2-22.923-51.2-51.2s22.923-51.2 51.2-51.2c28.277 0 51.2 22.923 51.2 51.2v0c0 28.277-22.923 51.2-51.2 51.2v0zM699.793 260.252c-9.417 0-17.052 7.634-17.052 17.052s7.634 17.052 17.052 17.052c9.417 0 17.052-7.634 17.052-17.052v0c0-9.417-7.634-17.052-17.052-17.052v0z" />
<glyph unicode="&#xe924;" glyph-name="delete-icon" horiz-adv-x="828" d="M711.107 837.12h-159.416c-8.019 69.607-66.61 123.152-137.708 123.152s-129.689-53.546-137.647-122.51l-0.060-0.642h-159.293c-64.579-0.070-116.912-52.403-116.982-116.975v-5.905c0.047-49.009 30.192-90.965 72.945-108.385l0.783-0.282v-552.591c0.070-64.622 52.473-116.982 117.105-116.982 0.029 0 0.058 0 0.086 0h446.255c64.579 0.070 116.912 52.403 116.982 116.975v552.68c43.579 17.642 73.782 59.573 73.892 108.571v6.117c-0.186 64.477-52.451 116.684-116.932 116.777h-0.009zM414.024 904.499c40.306-0.074 73.887-28.773 81.504-66.848l0.089-0.531h-163.185c7.705 38.606 41.286 67.305 81.584 67.379h0.008zM698.655 52.982c0-33.932-27.508-61.44-61.44-61.44v0h-446.3c-33.932 0-61.44 27.508-61.44 61.44v0 544.358h569.344zM772.588 714.24c0-33.932-27.508-61.44-61.44-61.44v0h-593.92c-0.085 0-0.186-0.001-0.287-0.001-33.932 0-61.44 27.508-61.44 61.44 0 0 0 0 0 0.001v0 6.103c0 33.932 27.508 61.44 61.44 61.44v0h593.92c33.932 0 61.44-27.508 61.44-61.44v0-6.103zM268.042 94.269c19.228 0 34.816 15.588 34.816 34.816v0 391.864c0 19.228-15.588 34.816-34.816 34.816s-34.816-15.588-34.816-34.816v-391.864c0-19.228 15.588-34.816 34.816-34.816v0zM414.065 94.269c19.228 0 34.816 15.588 34.816 34.816v0 391.864c0 19.228-15.588 34.816-34.816 34.816s-34.816-15.588-34.816-34.816v-391.864c0-19.228 15.588-34.816 34.816-34.816v0zM560.046 94.269c19.228 0 34.816 15.588 34.816 34.816v0 391.864c0 19.228-15.588 34.816-34.816 34.816s-34.816-15.588-34.816-34.816v-391.864c0-19.228 15.588-34.816 34.816-34.816v0z" />
<glyph unicode="&#xe925;" glyph-name="no-message-icon" horiz-adv-x="1122" d="M858.644 718.602c-2.857-29.501-19.078-54.699-42.454-69.737l-0.369-0.223c-6.84-5.755-19.579-16.261-19.558-20.193 0.001-0.079 0.001-0.173 0.001-0.267 0-15.145-12.278-27.423-27.423-27.423-0.065 0-0.13 0-0.196 0.001h-0.215c-0.092-0.001-0.2-0.002-0.309-0.002-15.090 0-27.342 12.152-27.503 27.204v0.015c-0.246 30.188 21.75 48.271 39.424 63.119 13.865 11.653 22.958 19.866 22.958 27.382 0 15.202-12.323 27.525-27.525 27.525s-27.525-12.323-27.525-27.525v0c0.007-0.225 0.010-0.489 0.010-0.755 0-15.371-12.461-27.832-27.832-27.832s-27.832 12.461-27.832 27.832c0 0.265 0.004 0.53 0.011 0.794l-0.001-0.039c0 0.015 0 0.033 0 0.051 0 45.939 37.241 83.18 83.18 83.18 45.921 0 83.15-37.212 83.18-83.125v-0.003zM769.208 575.037c-15.047-0.055-27.224-12.266-27.224-27.32 0-0.194 0.002-0.389 0.006-0.582v0.029-0.205c-0.004-0.171-0.006-0.372-0.006-0.573 0-15.038 12.187-27.23 27.223-27.238h0.001c15.099 0.422 27.178 12.763 27.178 27.924s-12.079 27.503-27.14 27.924l-0.039 0.001zM208.364 380.887c-15.394 0-27.873-12.479-27.873-27.873s12.479-27.873 27.873-27.873v0h2.314c15.394 0 27.873 12.479 27.873 27.873s-12.479 27.873-27.873 27.873v0zM305.070 380.887c-15.394 0-27.873-12.479-27.873-27.873s12.479-27.873 27.873-27.873v0h2.314c15.394 0 27.873 12.479 27.873 27.873s-12.479 27.873-27.873 27.873v0zM1122.304 826.061v-313.733c0.001-0.201 0.002-0.438 0.002-0.676 0-73.846-59.788-133.727-133.599-133.877h-360.893c-7.045 0-12.861 0-17.715 0.143s-10.834 0.143-13.066 0c-2.335-1.556-8.028-6.779-13.537-11.858-2.171-2.048-4.649-4.219-7.311-6.656l-102.093-93.204c-5.012-4.495-11.671-7.243-18.972-7.243-15.496 0-28.101 12.382-28.459 27.792l-0.001 0.033v295.404h-291.492c-43.74-0.195-79.166-35.52-79.524-79.203v-313.747c0.414-43.073 35.427-77.83 78.558-77.83 0.34 0 0.679 0.002 1.017 0.006l-0.051-0.001h403.067c7.24-0.242 13.744-3.204 18.561-7.891l-0.006 0.006 83.169-76.82v264.95c-0.007 0.225-0.010 0.489-0.010 0.755 0 15.371 12.461 27.832 27.832 27.832s27.832-12.461 27.832-27.832c0-0.265-0.004-0.53-0.011-0.794l0.001 0.039v-328.090c0.001-0.063 0.001-0.137 0.001-0.211 0-11.162-6.654-20.77-16.211-25.073l-0.174-0.070c-3.144-1.412-6.814-2.235-10.677-2.235-0.12 0-0.24 0.001-0.36 0.002h0.018c-7.272 0.117-13.854 2.979-18.775 7.592l0.015-0.014-121.979 112.128h-392.294c-0.25-0.002-0.546-0.003-0.842-0.003-73.915 0-133.886 59.7-134.326 133.511v313.755c0.325 74.483 60.67 134.764 135.147 134.984h291.492v188.129c0.695 74.121 60.943 133.94 135.162 133.94 0.168 0 0.335 0 0.502-0.001h426.347c0.092 0 0.2 0 0.309 0 73.645 0 133.345-59.701 133.345-133.345 0-0.209 0-0.418-0.001-0.626v0.032zM1066.66 826.061c0.001 0.152 0.002 0.333 0.002 0.513 0 42.857-34.742 77.599-77.599 77.599-0.145 0-0.289 0-0.434-0.001h-426.351c-0.197 0.002-0.43 0.003-0.663 0.003-43.412 0-78.678-34.875-79.31-78.136l-0.001-0.060v-476.119l55.951 50.647c2.601 2.376 5.489 4.547 7.619 6.492 25.539 23.572 32.092 27.341 65.413 26.624 4.547 0 9.953-0.123 16.548-0.123h360.858c43.079 0.080 77.97 35.021 77.97 78.111 0 0.245-0.001 0.49-0.003 0.734v-0.037 313.754z" />
<glyph unicode="&#xe926;" glyph-name="welcome-message-icon" horiz-adv-x="1203" d="M982.372-48.536l-140.661 162.060h-438.681c-16.735 0-30.301 13.566-30.301 30.301s13.566 30.301 30.301 30.301h452.473c0.069 0.001 0.15 0.001 0.231 0.001 9.023 0 17.113-3.993 22.599-10.308l0.031-0.037 121.958-140.891v121.206c0.048 16.664 13.568 30.155 30.239 30.155 0 0 0 0 0 0h61.71c28.060 0.095 50.775 22.84 50.823 50.902v442.155c-0.059 28.087-22.818 50.838-50.902 50.885h-0.005c-16.643 0-30.134 13.492-30.134 30.134s13.492 30.134 30.134 30.134v0c61.35-0.107 111.056-49.806 111.175-111.143v-442.161c-0.119-61.348-49.825-111.047-111.165-111.154h-31.628v-133.264c0.001-0.11 0.002-0.24 0.002-0.369 0-18.943-11.95-35.094-28.723-41.326l-0.305-0.099c-4.662-1.833-10.060-2.905-15.706-2.926h-0.009c-0.011 0-0.023 0-0.036 0-13.358 0-25.322 5.968-33.371 15.383l-0.050 0.060zM142.876 162.299v133.159h-31.722c-61.37 0.119-111.083 49.861-111.154 111.231v442.157c0.119 61.341 49.813 111.035 111.143 111.154h748.561c61.341-0.119 111.035-49.813 111.154-111.143v-442.161c-0.012-61.245-49.658-110.891-110.902-110.903h-498.24l-140.411-162.541c-8.232-9.513-20.324-15.496-33.812-15.496-24.612 0-44.572 19.92-44.637 44.517v0.006zM60.248 848.846v-441.899c0.059-28.087 22.818-50.838 50.902-50.885h61.465c0.006 0 0.014 0 0.021 0 16.7 0 30.239-13.538 30.239-30.239 0-0.007 0-0.015 0-0.022v0.001-121.206l121.958 140.891c5.583 6.355 13.726 10.344 22.801 10.344 0.029 0 0.057 0 0.086 0h511.986c28.084 0.048 50.838 22.801 50.885 50.881v442.134c-0.048 28.084-22.801 50.838-50.881 50.885h-748.555c-28.088-0.047-50.847-22.799-50.906-50.88v-0.006zM521.122 617.343c0-19.828-16.074-35.902-35.902-35.902s-35.902 16.074-35.902 35.902c0 19.828 16.074 35.902 35.902 35.902s35.902-16.074 35.902-35.902zM641.324 617.343c0-19.828-16.074-35.902-35.902-35.902s-35.902 16.074-35.902 35.902c0 19.828 16.074 35.902 35.902 35.902s35.902-16.074 35.902-35.902zM400.919 617.343c0-19.828-16.074-35.902-35.902-35.902s-35.902 16.074-35.902 35.902c0 19.828 16.074 35.902 35.902 35.902s35.902-16.074 35.902-35.902z" />
<glyph unicode="&#xe927;" glyph-name="like-filled" d="M752 900c-55.566 0-106.51-17.608-151.414-52.336-43.050-33.294-71.712-75.7-88.586-106.536-16.874 30.838-45.536 73.242-88.586 106.536-44.904 34.728-95.848 52.336-151.414 52.336-155.064 0-272-126.834-272-295.028 0-181.708 145.886-306.030 366.738-494.236 37.504-31.962 80.014-68.19 124.198-106.828 5.824-5.1 13.304-7.908 21.064-7.908s15.24 2.808 21.064 7.906c44.188 38.644 86.696 74.87 124.222 106.85 220.828 188.186 366.714 312.508 366.714 494.216 0 168.194-116.936 295.028-272 295.028z" />
<glyph unicode="&#xe928;" glyph-name="like" d="M949.288 811.46c-50.506 57.308-120.572 88.868-197.288 88.868-107.896 0-176.206-64.44-214.51-118.5-9.938-14.028-18.392-28.094-25.49-41.33-7.098 13.236-15.55 27.302-25.49 41.33-38.304 54.060-106.614 118.5-214.51 118.5-76.716 0-146.782-31.562-197.29-88.87-48.176-54.668-74.71-127.884-74.71-206.16 0-85.206 33.266-164.456 104.69-249.4 63.834-75.92 155.668-154.176 262.010-244.794 39.626-33.768 80.604-68.688 124.23-106.858l1.31-1.148c5.656-4.952 12.708-7.426 19.76-7.426s14.104 2.476 19.76 7.426l1.31 1.148c43.626 38.17 84.604 73.088 124.236 106.862 106.336 90.612 198.17 168.868 262.004 244.79 71.424 84.946 104.69 164.194 104.69 249.4 0 78.276-26.534 151.492-74.712 206.162zM618.386 156.772c-34.16-29.108-69.316-59.066-106.386-91.292-37.068 32.222-72.226 62.182-106.392 91.296-208.118 177.346-345.608 294.508-345.608 448.522 0 63.66 21.21 122.788 59.724 166.49 38.956 44.198 93.034 68.54 152.276 68.54 82.258 0 135.432-50.676 165.552-93.188 27.018-38.128 41.116-76.564 45.924-91.318 4.022-12.35 15.536-20.708 28.524-20.708s24.502 8.358 28.524 20.708c4.808 14.754 18.906 53.19 45.924 91.32 30.12 42.51 83.294 93.186 165.552 93.186 59.242 0 113.32-24.342 152.274-68.54 38.516-43.702 59.726-102.83 59.726-166.49 0-154.014-137.49-271.176-345.614-448.526z" />
<glyph unicode="&#xe929;" glyph-name="car-icon" horiz-adv-x="1282" d="M1272.827 648.347c-8.248 23.175-26.233 41.084-48.899 49.057l-0.559 0.171c-9.876 2.128-21.221 3.347-32.851 3.347-29.945 0-58.003-8.080-82.113-22.178l0.771 0.416c-18.818 43.921-66.933 151.225-108.695 201.892-38.611 42.77-92.831 70.812-153.609 75.096l-0.725 0.041c-2.303 0-229.827 3.838-402.499 3.838s-250.525-209.55-272.846-284.476c-56.617 35.237-94.848 29.585-117.648 17.465-42.28-22.484-54.947-76.922-52.913-116.583 0-0.023 0-0.050 0-0.078 0-44.992 32.253-82.45 74.9-90.515l0.573-0.090c-14.984-32.58-25.622-70.382-29.948-110.079l-0.145-1.638v-288.037c-0.594-5.183-0.933-11.19-0.933-17.277 0-36.365 12.102-69.903 32.497-96.808l-0.29 0.4c20.854-22.277 50.442-36.159 83.271-36.159 2.212 0 4.41 0.063 6.591 0.187l-0.302-0.014c2.761-0.206 5.981-0.324 9.228-0.324 36.888 0 70.23 15.184 94.116 39.642l0.025 0.026c16.969 20.085 27.726 45.904 29.037 74.191l0.010 0.275h683.242c0.615-27.451 10.515-52.477 26.67-72.178l-0.165 0.208c23.877-24.863 57.396-40.311 94.523-40.311 3.515 0 6.998 0.138 10.443 0.41l-0.455-0.029c1.581-0.081 3.432-0.128 5.294-0.128 31.944 0 60.7 13.652 80.75 35.441l0.071 0.078c39.411 44.459 34.076 115.24 32.982 126.256 0.259 20.728 3.627 251.696 0 289.361-7.496 36.291-19.573 68.496-35.828 98.081l0.908-1.803c26.811 4.838 49.425 19.91 64.081 40.94l0.213 0.323c12.739 20.575 20.289 45.527 20.289 72.242 0 17.729-3.325 34.681-9.385 50.267l0.324-0.946zM1231.113 547.703c-13.055-17.223-33.527-28.233-56.57-28.233-2.175 0-4.328 0.098-6.453 0.29l0.274-0.020h-31.264l15.075-27.378c18.069-30.723 32.919-66.251 42.7-103.825l0.646-2.922c2.879-29.191 1.19-200.031 0-286.28v-1.247l0.182-1.267c0.723-5.4 1.135-11.643 1.135-17.982 0-30.126-9.317-58.076-25.227-81.126l0.313 0.479c-13.405-14.239-32.379-23.105-53.423-23.105-1.759 0-3.503 0.062-5.23 0.184l0.232-0.013c-2.696-0.267-5.827-0.42-8.993-0.42-26.163 0-49.894 10.409-67.28 27.311l0.022-0.022c-11.225 14.755-17.983 33.439-17.983 53.702 0 3.563 0.209 7.077 0.615 10.531l-0.040-0.419 3.234 21.246h-763.466l2.437-20.728c0.2-2.316 0.314-5.012 0.314-7.734 0-22.132-7.536-42.505-20.183-58.69l0.159 0.211c-17.425-16.906-41.224-27.329-67.458-27.329-2.913 0-5.796 0.128-8.643 0.38l0.368-0.026c-1.727-0.136-3.739-0.214-5.769-0.214-21.96 0-41.801 9.069-55.983 23.667l-0.018 0.019c-14.33 20.205-22.908 45.367-22.908 72.533 0 5.114 0.304 10.157 0.895 15.112l-0.058-0.599v288.411c4.811 44.207 18.522 84.36 39.315 119.863l-0.768-1.418 20.929 30.42-37.012-1.42c-1.848-0.196-3.993-0.307-6.164-0.307-32.041 0-58.402 24.32-61.63 55.507l-0.022 0.266c-0.096 0.96-0.163 1.919-0.221 2.879-1.526 30.209 8.272 68.814 33.375 82.162 23.319 12.379 57.874 2.121 100.212-29.594l22.724-17.014 6.401 27.637c0.643 2.831 67.355 281.646 243.789 281.646 172.394 0 399.601-3.752 401.367-3.781 50.421-4.135 94.829-26.981 126.833-61.492l0.114-0.124c48.499-58.891 110.355-209.857 110.989-211.517l8.32-20.229 18.636 11.515c17.177 10.68 69.092 36.091 101.997 25.103 12.681-4.614 22.407-14.654 26.496-27.236l0.086-0.305c4.073-10.629 6.432-22.925 6.432-35.771 0-18.908-5.111-36.622-14.026-51.836l0.262 0.484zM311.72 604.618c86.287-10.057 186.258-15.794 287.569-15.794 12.702 0 25.383 0.090 38.043 0.27l-1.916-0.021c9.61-0.114 20.96-0.179 32.325-0.179 108.925 0 216.456 5.966 322.285 17.59l-13.065-1.165c24.815 3.042 43.845 23.987 43.845 49.378 0 8.865-2.32 17.189-6.386 24.396l0.129-0.249-58.316 104.953c-23.654 42.024-67.97 69.946-118.808 69.956h-385.41c-50.832-0.017-95.139-27.937-118.438-69.275l-0.352-0.68-58.69-105.557c-3.936-6.961-6.255-15.286-6.255-24.153 0-25.253 18.813-46.112 43.188-49.326l0.252-0.027zM306.845 660.17l58.69 105.557c17.242 30.555 49.49 50.85 86.479 50.859h385.429c36.998-0.011 69.253-20.305 86.252-50.366l0.257-0.493 58.296-104.953c1.021-1.769 1.623-3.891 1.623-6.154 0-2.115-0.526-4.106-1.455-5.851l0.033 0.067c-1.902-3.776-5.539-6.435-9.834-6.942l-0.060-0.006c-91.383-10.254-197.319-16.103-304.622-16.103-11.427 0-22.839 0.066-34.235 0.199l1.737-0.016c-10.563-0.156-23.032-0.244-35.521-0.244-99.872 0-198.421 5.666-295.343 16.695l11.861-1.097c-6.318 0.852-11.138 6.209-11.138 12.693 0 0.569 0.037 1.13 0.109 1.68l-0.007-0.065c0.219 1.693 0.73 3.226 1.483 4.608l-0.034-0.069zM545.145 376.010h199.129c0.003 0 0.006 0 0.010 0 14.161 0 25.641-11.48 25.641-25.641v0c-0.005-14.157-11.483-25.631-25.641-25.631-0.003 0-0.007 0-0.010 0h-199.128c-0.003 0-0.006 0-0.010 0-14.156 0-25.631 11.475-25.631 25.631v0c0 14.161 11.48 25.641 25.641 25.641v0zM413.093 422.925l-115.883 31.897c-5.034 1.418-10.816 2.233-16.788 2.233-14.186 0-27.298-4.599-37.927-12.386l0.18 0.126c-17.449-12.901-28.915-33.033-29.944-55.883l-0.006-0.158-1.785-31.869c-0.094-1.415-0.148-3.067-0.148-4.732 0-19.922 7.679-38.051 20.238-51.588l-0.044 0.048c11.899-12.809 28.817-20.815 47.605-20.871h117.687c37.774 1.454 67.844 32.428 67.844 70.425 0 0.817-0.014 1.631-0.041 2.441l0.003-0.118c0.011 0.472 0.017 1.027 0.017 1.584 0 32.271-21.239 59.581-50.501 68.714l-0.51 0.137zM396.233 316.706h-117.706c-8.216 0.114-15.576 3.686-20.707 9.324l-0.021 0.023c-6.244 6.846-10.069 15.993-10.069 26.034 0 0.969 0.036 1.93 0.106 2.882l-0.008-0.127 1.814 31.869c0.369 11.477 5.975 21.573 14.495 28.021l0.092 0.066c4.442 3.306 10.023 5.311 16.071 5.364h0.013c2.524-0.023 4.957-0.371 7.271-1.006l-0.199 0.047 115.911-31.897c13.954-4.822 23.798-17.847 23.798-33.17 0-0.572-0.014-1.14-0.041-1.705l0.003 0.080c0.045-0.654 0.071-1.416 0.071-2.185 0-17.629-13.547-32.094-30.799-33.552l-0.124-0.008zM1039.219 442.876c-10.428 7.66-23.519 12.258-37.684 12.258-5.999 0-11.805-0.825-17.311-2.367l0.451 0.108-115.911-31.888c-29.742-9.289-50.954-36.584-50.954-68.834 0-0.556 0.006-1.111 0.019-1.665l-0.001 0.082c-0.024-0.681-0.037-1.482-0.037-2.286 0-38.004 30.066-68.986 67.709-70.457l0.134-0.004h117.591c18.799 0.066 35.712 8.086 47.558 20.868l0.039 0.042c12.531 13.484 20.221 31.617 20.221 51.546 0 1.653-0.053 3.293-0.157 4.919l0.011-0.222-1.814 31.926c-1.045 22.966-12.472 43.064-29.666 55.834l-0.197 0.14zM1024.010 324.134c-5.151-5.66-12.511-9.233-20.707-9.346h-117.726c-17.354 1.495-30.875 15.951-30.875 33.565 0 0.771 0.026 1.535 0.077 2.293l-0.006-0.103c-0.023 0.473-0.036 1.028-0.036 1.586 0 15.339 9.855 28.376 23.578 33.126l0.246 0.074 115.835 31.897c2.16 0.621 4.641 0.978 7.206 0.978 6.069 0 11.671-1.999 16.184-5.375l-0.071 0.051c8.603-6.51 14.206-16.593 14.585-27.999l0.002-0.060 1.814-31.917c0.056-0.78 0.088-1.689 0.088-2.606 0-10.122-3.905-19.333-10.292-26.206l0.022 0.024z" />
<glyph unicode="&#xe92a;" glyph-name="favorite-icon" d="M1021.958 317.067c-5.516 18.118-21.256 31.041-40.103 32.921l-166.642 16.626c0.212 0.166 0.438 0.308 0.648 0.482l186.712 154.266c18.394 15.2 25.793 39.773 18.842 62.601s-26.785 39.111-50.531 41.479l-313.195 31.247-90.29 248.73c-8.56 23.587-30.307 38.829-55.399 38.829 0 0 0 0-0.002 0-25.091 0-46.839-15.24-55.399-38.827l-90.29-248.73-313.203-31.249c-23.745-2.37-43.577-18.65-50.529-41.477-6.952-22.829 0.444-47.401 18.836-62.601l216.809-179.17-63.567-288.409c-5.316-24.125 4.6-48.457 25.267-61.991 9.918-6.496 21.126-9.728 32.313-9.728 12.12 0 24.215 3.796 34.611 11.344l259.154 188.216 15.95-13.18-35.191-159.652c-4.218-19.146 3.652-38.457 20.054-49.197 16.394-10.74 37.247-10.234 53.109 1.286l134.683 97.814 134.681-97.926c8.254-6.002 17.86-9.020 27.489-9.018 8.87 0 17.76 2.562 25.627 7.708 16.408 10.736 24.287 30.047 20.070 49.199l-35.195 159.806 119.723 98.92c14.602 12.062 20.472 31.563 14.958 49.681zM732.257 120.046c-5.26 3.824-11.452 5.736-17.642 5.736-6.186 0-12.374-1.91-17.628-5.726l-124.131-90.152 31.635 143.531c2.422 10.99-1.51 22.415-10.186 29.585l-109.411 90.414 160.866 16.048c11.478 1.144 21.286 8.772 25.221 19.616l43.633 120.209 43.635-120.209c3.936-10.844 13.742-18.47 25.221-19.616l160.856-16.048-109.397-90.388c-8.674-7.168-12.61-18.588-10.19-29.581l31.639-143.667-124.119 90.248zM233.855 43.613l66.908 303.573c2.422 10.992-1.51 22.415-10.186 29.583l-228.969 189.224 329.442 32.867c11.478 1.146 21.286 8.772 25.221 19.616l95.732 263.708 95.726-263.708c3.936-10.844 13.742-18.47 25.221-19.616l329.432-32.871-174.082-143.831-29.719 81.872c-6.792 18.716-24.051 30.813-43.963 30.815h-0.002c-19.912 0-37.171-12.094-43.967-30.815l-49.627-136.717-173.652-17.326c-18.842-1.88-34.583-14.8-40.101-32.917-5.516-18.116 0.352-37.617 14.948-49.681l56.023-46.295-244.384-177.48z" />
<glyph unicode="&#xe92b;" glyph-name="cancel-icon" d="M512 960c-282.77 0-512-229.23-512-512s229.23-512 512-512c282.77 0 512 229.23 512 512v0c0 0.091 0 0.199 0 0.307 0 282.6-229.093 511.693-511.693 511.693-0.108 0-0.216 0-0.324 0h0.017zM512 15.974c-238.601 0-432.026 193.424-432.026 432.026s193.424 432.026 432.026 432.026c238.601 0 432.026-193.424 432.026-432.026v0c0-0.076 0-0.166 0-0.256 0-238.46-193.31-431.77-431.77-431.77-0.090 0-0.18 0-0.27 0h0.014zM512 702.259c-22.084 0-39.987-17.903-39.987-39.987v0-257.587c0-22.098 17.914-40.013 40.013-40.013s40.013 17.914 40.013 40.013v0 257.587c0 22.084-17.903 39.987-39.987 39.987-0.018 0-0.036 0-0.054 0h0.003zM566.016 261.683c0-29.832-24.184-54.016-54.016-54.016s-54.016 24.184-54.016 54.016c0 29.832 24.184 54.016 54.016 54.016s54.016-24.184 54.016-54.016z" />
<glyph unicode="&#xe92c;" glyph-name="completed-icon" d="M512 960c-282.77 0-512-229.23-512-512s229.23-512 512-512c282.77 0 512 229.23 512 512v0c-0.32 282.641-229.359 511.68-511.969 512h-0.031zM512 3.174c-245.67 0-444.826 199.155-444.826 444.826s199.155 444.826 444.826 444.826c245.67 0 444.826-199.155 444.826-444.826v0c-0.349-245.53-199.296-444.477-444.793-444.826h-0.033zM697.395 615.629l-264.038-263.987-106.701 106.701c-6.020 5.762-14.2 9.309-23.209 9.309-18.55 0-33.587-15.038-33.587-33.587 0-9.022 3.557-17.213 9.345-23.247l-0.011 0.012 130.458-130.458c6.076-6.067 14.466-9.819 23.731-9.819s17.655 3.752 23.732 9.819v0l287.642 287.642c6.647 6.155 10.794 14.928 10.794 24.669 0 18.55-15.038 33.587-33.587 33.587-9.741 0-18.514-4.147-24.649-10.772l-0.020-0.022z" />
<glyph unicode="&#xe92d;" glyph-name="confirm-icon" horiz-adv-x="1071" d="M980.224 534.579c-23.872-0.029-43.213-19.388-43.213-43.264v0-43.571c-0.088-234.823-190.44-425.158-425.262-425.216h-0.006c-234.982 0-425.472 190.49-425.472 425.472s190.49 425.472 425.472 425.472v0c0.114 0 0.25 0 0.386 0 62.463 0 121.76-13.558 175.108-37.892l-2.642 1.079c4.807-2.003 10.391-3.167 16.247-3.167 23.894 0 43.264 19.37 43.264 43.264 0 17.006-9.812 31.721-24.085 38.791l-0.252 0.113c-61.038 28.009-132.422 44.339-207.62 44.339-0.053 0-0.105 0-0.158 0h-0.248c-0.046 0-0.1 0-0.154 0-282.77 0-512-229.23-512-512 0-282.716 229.143-511.912 511.838-512h0.316c282.569 0.146 511.598 229.174 511.744 511.729v43.586c0 23.894-19.37 43.264-43.264 43.264v0zM1058.099 899.277c-7.921 7.92-18.864 12.818-30.95 12.818s-23.029-4.898-30.95-12.818l-490.906-490.906-111.36 111.36c-7.967 8.217-19.109 13.317-31.442 13.317-24.177 0-43.776-19.599-43.776-43.776 0-12.333 5.1-23.475 13.306-31.431l142.347-142.347c7.921-7.92 18.864-12.818 30.95-12.818s23.029 4.898 30.95 12.818l521.882 521.882c7.904 7.919 12.792 18.851 12.792 30.925 0 12.099-4.909 23.052-12.843 30.976v0z" />
<glyph unicode="&#xe92e;" glyph-name="on-trip-icon" d="M734.362 585.011c-7.729 7.736-18.41 12.521-30.208 12.521s-22.479-4.785-30.208-12.52v0l-183.398-183.347-76.8 76.8c-7.731 7.731-18.411 12.513-30.208 12.513-23.594 0-42.721-19.127-42.721-42.721 0-11.797 4.782-22.477 12.513-30.208v0l106.803-106.803c7.729-7.736 18.41-12.521 30.208-12.521s22.479 4.785 30.208 12.52v0l213.606 213.606c7.721 7.726 12.496 18.397 12.496 30.183 0 11.684-4.693 22.272-12.296 29.982l0.005-0.005zM981.35 490.65c-23.543-0.029-42.621-19.107-42.65-42.647v-0.003c-0.013-235.623-191.025-426.628-426.65-426.628-235.632 0-426.65 191.018-426.65 426.65s191.018 426.65 426.65 426.65c118.344 0 225.433-48.183 302.722-126.002l0.023-0.024c7.746-7.823 18.488-12.667 30.362-12.667 23.594 0 42.721 19.127 42.721 42.721 0 11.721-4.72 22.339-12.363 30.058l0.003-0.003c-92.799 93.541-221.397 151.449-363.52 151.449-282.77 0-512-229.23-512-512s229.23-512 512-512c282.698 0 511.884 229.114 512 511.785v0.011c-0.029 23.543-19.107 42.621-42.647 42.65h-0.003z" />
<glyph unicode="&#xe92f;" glyph-name="pending-icon" d="M512-64c282.77 0 512 229.23 512 512s-229.23 512-512 512c-282.77 0-512-229.23-512-512v0c0.175-282.699 229.3-511.825 511.983-512h0.017zM512 888.32c243.182 0 440.32-197.138 440.32-440.32s-197.138-440.32-440.32-440.32c-243.182 0-440.32 197.138-440.32 440.32v0c0 243.182 197.138 440.32 440.32 440.32v0zM488.141 387.84h170.65c20.020 0 36.25 16.229 36.25 36.25s-16.229 36.25-36.25 36.25h-134.4v210.483c0 20.020-16.229 36.25-36.25 36.25s-36.25-16.229-36.25-36.25v0-246.733c-0.002-0.122-0.002-0.267-0.002-0.412 0-19.794 16.046-35.84 35.84-35.84 0.145 0 0.289 0.001 0.434 0.003h-0.022z" />
</font>
</defs>
</svg>
